<svg class="animated" id="freepik_stories-compose-music" xmlns="http://www.w3.org/2000/svg" viewBox="0 0 500 500" version="1.1" xmlns:xlink="http://www.w3.org/1999/xlink" xmlns:svgjs="http://svgjs.com/svgjs"><style>svg#freepik_stories-compose-music:not(.animated) .animable {opacity: 0;}svg#freepik_stories-compose-music.animated #freepik--Plants--inject-244 {animation: 6s Infinite  linear wind;animation-delay: 0s;}svg#freepik_stories-compose-music.animated #freepik--musical-notes--inject-244 {animation: 1.5s Infinite  linear floating;animation-delay: 0s;}svg#freepik_stories-compose-music.animated #freepik--Piano--inject-244 {animation: 6s Infinite  linear wind;animation-delay: 0s;}svg#freepik_stories-compose-music.animated #freepik--Character--inject-244 {animation: 1.5s Infinite  linear wind;animation-delay: 0s;}            @keyframes wind {                0% {                    transform: rotate( 0deg );                }                25% {                    transform: rotate( 1deg );                }                75% {                    transform: rotate( -1deg );                }            }                    @keyframes floating {                0% {                    opacity: 1;                    transform: translateY(0px);                }                50% {                    transform: translateY(-10px);                }                100% {                    opacity: 1;                    transform: translateY(0px);                }            }        .animator-hidden { display: none; }</style><g id="freepik--Floor--inject-244" class="animable animator-hidden" style="transform-origin: 250px 340.23px;"><ellipse cx="250" cy="340.23" rx="236.26" ry="140.19" style="fill: rgb(250, 250, 250); transform-origin: 250px 340.23px;" id="elpfhj2q9ley" class="animable"></ellipse></g><g id="freepik--Shadows--inject-244" class="animable animator-hidden" style="transform-origin: 265.28px 309.945px;"><polygon points="460.41 339.16 372.59 389.77 154.29 264.14 242.09 213.5 460.41 339.16" style="fill: rgb(230, 230, 230); transform-origin: 307.35px 301.635px;" id="elpknp0xzb58" class="animable"></polygon><polygon points="210.85 356.93 124.93 406.39 70.15 374.9 156.06 325.46 210.85 356.93" style="fill: rgb(230, 230, 230); transform-origin: 140.5px 365.925px;" id="el1vmkv1h3n28" class="animable"></polygon></g><g id="freepik--Plants--inject-244" class="animable animator-active" style="transform-origin: 266.535px 316.35px;"><path d="M441.64,327.72l3,1.86,1.3.81,4.33,2.67c2.89-36.46,23-55.42,24.68-64.77,1.54-8.37-4.67-10.22-4.67-10.22-16.14-5.12-27.08,18.12-29.05,36.81A157.3,157.3,0,0,0,441.64,327.72Z" style="fill: rgb(38, 50, 56); transform-origin: 457.879px 295.205px;" id="elzypxs9vle6" class="animable"></path><path d="M444.66,329.58l1.3.81c-2.32-40.64,20.79-66.38,21-66.65a.64.64,0,0,0-.94-.86C465.82,263.15,442.68,288.94,444.66,329.58Z" style="fill: rgb(255, 255, 255); transform-origin: 455.814px 296.553px;" id="elwbtqm5u8l78" class="animable"></path><path d="M449.21,333.51l2.43,1.38,1.25.73,2.43,1.38c3.48-26.16,25.94-36.4,28.69-42.94a7,7,0,0,0-.05-5.58,8.32,8.32,0,0,0-6.23-4.09c-4.06-.4-8.45,2.2-9.75,3.09C448.77,300.56,449.21,333.51,449.21,333.51Z" style="fill: rgb(55, 71, 79); transform-origin: 466.887px 310.674px;" id="elhavqcxyirt" class="animable"></path><path d="M451.64,334.89l1.25.73c0-26.65,25.18-46.4,25.43-46.6a.63.63,0,0,0,.12-.9.61.61,0,0,0-.87-.1C477.3,288.22,452,308,451.64,334.89Z" style="fill: rgb(255, 255, 255); transform-origin: 465.109px 311.751px;" id="eleczgopfix8" class="animable"></path><path d="M81.57,368.2l-2.33,1.43-1,.63-3.35,2.05c-2.22-28.1-17.7-42.7-19-49.91-1.19-6.45,3.6-7.88,3.6-7.88,12.44-3.94,20.86,14,22.39,28.37A121.78,121.78,0,0,1,81.57,368.2Z" style="fill: rgb(38, 50, 56); transform-origin: 69.0468px 343.139px;" id="elz625m6jwaip" class="animable"></path><path d="M79.24,369.63l-1,.63C80,338.93,62.21,319.1,62,318.89a.47.47,0,0,1,0-.69.48.48,0,0,1,.68,0C62.93,318.43,80.76,338.31,79.24,369.63Z" style="fill: rgb(255, 255, 255); transform-origin: 70.5906px 344.159px;" id="elu2u5vewtbm" class="animable"></path><path d="M75.73,372.66l-1.87,1.06-1,.56L71,375.35c-2.68-20.16-20-28.06-22.11-33.09A5.39,5.39,0,0,1,49,338a6.42,6.42,0,0,1,4.8-3.14c3.13-.32,6.51,1.69,7.52,2.38C76.07,347.27,75.73,372.66,75.73,372.66Z" style="fill: rgb(55, 71, 79); transform-origin: 62.1175px 355.088px;" id="elghspub226rp" class="animable"></path><path d="M73.86,373.72l-1,.56c0-20.54-19.41-35.75-19.61-35.91a.49.49,0,1,1,.59-.77C54.09,337.76,73.55,353,73.86,373.72Z" style="fill: rgb(255, 255, 255); transform-origin: 63.4298px 355.866px;" id="elvt9fii3k9l" class="animable"></path></g><g id="freepik--musical-notes--inject-244" class="animable" style="transform-origin: 120.56px 79.4257px;"><path d="M92.64,81.84c-3.55-2.64-6-1.44-6-1.44L81,98.11a4.51,4.51,0,1,0,.69,2.83l0,.07L86.78,86s2.73.11,8.26,4.11c3.9,2.83,6.61.84,6.61.84C97.75,90.25,96.18,84.48,92.64,81.84Z" style="fill: rgb(33, 37, 38); transform-origin: 87.1691px 92.587px;" id="elz5627vri5d" class="animable"></path><path d="M161.76,42.47l-10.39,7.39,4.53,9.48a2.48,2.48,0,1,0,2,1.08h0l-4-8.44L162,46.26l4,8.44a2.48,2.48,0,1,0,2,1.08h0Z" style="fill: rgb(33, 37, 38); transform-origin: 159.901px 53.3848px;" id="el9w1awg1q06b" class="animable"></path><path d="M141,88.08l-15.57,7.84,4.16,13.74a3.34,3.34,0,0,0-2.93.91,3.38,3.38,0,1,0,5.41,1h0l-3.63-12.22,12.05-6.07,3.71,12.23a3.39,3.39,0,1,0,2.47,1.88h0Z" style="fill: rgb(33, 37, 38); transform-origin: 136.215px 102.231px;" id="elg2q63ostkr8" class="animable"></path></g><g id="freepik--Piano--inject-244" class="animable" style="transform-origin: 310.305px 220.095px;"><polygon points="413.5 274.38 413.5 363.24 200.37 240.56 200.37 152.14 413.5 274.38" style="fill: rgb(33, 37, 38); transform-origin: 306.935px 257.69px;" id="elwncom8s75w" class="animable"></polygon><g id="eld381yg5vlee"><polygon points="413.5 274.38 413.5 363.24 200.37 240.56 200.37 152.14 413.5 274.38" style="opacity: 0.6; transform-origin: 306.935px 257.69px;" class="animable"></polygon></g><polygon points="159.82 253.47 159.82 263.99 164.62 266.75 164.62 256.23 159.82 253.47" style="fill: rgb(33, 37, 38); transform-origin: 162.22px 260.11px;" id="elinpoi1jyela" class="animable"></polygon><g id="elfh3qh7cqvhs"><polygon points="159.82 253.47 159.82 263.99 164.62 266.75 164.62 256.23 159.82 253.47" style="opacity: 0.2; transform-origin: 162.22px 260.11px;" class="animable"></polygon></g><polygon points="164.62 256.22 164.62 266.75 205.17 243.35 205.17 232.82 164.62 256.22" style="fill: rgb(33, 37, 38); transform-origin: 184.895px 249.785px;" id="el8by7ly3rt9i" class="animable"></polygon><g id="el3o5qfxxs2jy"><polygon points="164.62 256.22 164.62 266.75 205.17 243.35 205.17 232.82 164.62 256.22" style="opacity: 0.4; transform-origin: 184.895px 249.785px;" class="animable"></polygon></g><polygon points="200.37 230.08 159.82 253.47 164.62 256.22 205.17 232.82 200.37 230.08" style="fill: rgb(33, 37, 38); transform-origin: 182.495px 243.15px;" id="el430cxomxudm" class="animable"></polygon><polygon points="169.42 175.12 169.42 247.97 174.21 250.72 174.21 172.38 169.42 175.12" style="fill: rgb(33, 37, 38); transform-origin: 171.815px 211.55px;" id="elyxslyc3v51" class="animable"></polygon><g id="elkobr3g0dm6b"><polygon points="169.42 175.12 169.42 247.97 174.21 250.72 174.21 172.38 169.42 175.12" style="opacity: 0.2; transform-origin: 171.815px 211.55px;" class="animable"></polygon></g><polygon points="174.21 172.81 174.21 261.23 179.01 258.45 179.01 175.57 174.21 172.81" style="fill: rgb(33, 37, 38); transform-origin: 176.61px 217.02px;" id="el2cax4if38yh" class="animable"></polygon><g id="elwmk9kqmj1tb"><polygon points="174.21 172.81 174.21 261.23 179.01 258.45 179.01 175.57 174.21 172.81" style="opacity: 0.4; transform-origin: 176.61px 217.02px;" class="animable"></polygon></g><polygon points="200.37 230.08 200.37 157.26 205.17 154.5 205.17 232.82 200.37 230.08" style="fill: rgb(33, 37, 38); transform-origin: 202.77px 193.66px;" id="elllhykgb5njl" class="animable"></polygon><g id="el34w7wi7wjc3"><polygon points="200.37 230.08 200.37 157.26 205.17 154.5 205.17 232.82 200.37 230.08" style="opacity: 0.4; transform-origin: 202.77px 193.66px;" class="animable"></polygon></g><polygon points="159.82 171.74 372.95 294.41 406.88 267.61 193.74 144.94 159.82 171.74" style="fill: rgb(33, 37, 38); transform-origin: 283.35px 219.675px;" id="elesmej2caat6" class="animable"></polygon><g id="elsyevv4w2il"><polygon points="159.82 171.74 372.95 294.41 406.88 267.61 193.74 144.94 159.82 171.74" style="opacity: 0.2; transform-origin: 283.35px 219.675px;" class="animable"></polygon></g><polygon points="372.95 287.21 372.95 297.78 413.5 274.38 413.5 363.24 456.8 338.26 456.8 181.76 413.5 206.75 413.5 229.29 401.59 264.61 372.95 287.21" style="fill: rgb(33, 37, 38); transform-origin: 414.875px 272.5px;" id="el3qrgc24by57" class="animable"></polygon><g id="el6t3bu7l257t"><polygon points="372.95 287.21 372.95 297.78 413.5 274.38 413.5 363.24 456.8 338.26 456.8 181.76 413.5 206.75 413.5 229.29 401.59 264.61 372.95 287.21" style="opacity: 0.4; transform-origin: 414.875px 272.5px;" class="animable"></polygon></g><polygon points="159.82 171.52 159.82 175.11 372.95 297.78 372.95 294.2 159.82 171.52" style="fill: rgb(33, 37, 38); transform-origin: 266.385px 234.65px;" id="eledaoenpl4x" class="animable"></polygon><g id="elw8xm3y6f21l"><polygon points="159.82 171.52 159.82 175.11 372.95 297.78 372.95 294.2 159.82 171.52" style="fill: rgb(255, 255, 255); opacity: 0.1; transform-origin: 266.385px 234.65px;" class="animable"></polygon></g><polygon points="200.37 84.07 200.37 106.61 413.5 229.29 413.5 206.75 200.37 84.07" style="fill: rgb(33, 37, 38); transform-origin: 306.935px 156.68px;" id="el1c1d4jjirvl" class="animable"></polygon><g id="elz4td8fnb14"><polygon points="200.37 84.07 200.37 106.61 413.5 229.29 413.5 206.75 200.37 84.07" style="opacity: 0.2; transform-origin: 306.935px 156.68px;" class="animable"></polygon></g><polygon points="200.37 106.61 188.46 141.93 398.83 266.79 401.6 264.61 413.5 229.29 200.37 106.61" style="fill: rgb(33, 37, 38); transform-origin: 300.98px 186.7px;" id="elt2gjeavuxe" class="animable"></polygon><g id="elsiri1c467qf"><polygon points="200.37 106.61 188.46 141.93 398.83 266.79 400.46 261.96 410.98 230.74 413.5 229.29 200.37 106.61" style="fill: rgb(255, 255, 255); opacity: 0.2; transform-origin: 300.98px 186.7px;" class="animable"></polygon></g><polygon points="197.85 108.06 185.7 144.11 398.83 266.79 410.98 230.74 197.85 108.06" style="fill: rgb(33, 37, 38); transform-origin: 298.34px 187.425px;" id="eldbizlyg78lh" class="animable"></polygon><g id="el4qw2jd5cant"><polygon points="197.85 108.06 185.7 144.11 398.83 266.79 410.98 230.74 197.85 108.06" style="fill: rgb(255, 255, 255); opacity: 0.1; transform-origin: 298.34px 187.425px;" class="animable"></polygon></g><g id="el2990uq3me5a"><polygon points="410.99 230.74 413.5 229.29 401.6 264.61 398.86 266.79 410.99 230.74" style="opacity: 0.4; transform-origin: 406.18px 248.04px;" class="animable"></polygon></g><polygon points="368.16 373.37 368.16 383.88 372.95 386.64 372.95 376.12 368.16 373.37" style="fill: rgb(33, 37, 38); transform-origin: 370.555px 380.005px;" id="elz4b48dkq5ze" class="animable"></polygon><g id="el1lzpqum65oa"><polygon points="368.16 373.37 368.16 383.88 372.95 386.64 372.95 376.12 368.16 373.37" style="opacity: 0.2; transform-origin: 370.555px 380.005px;" class="animable"></polygon></g><polygon points="372.95 376.11 372.95 386.64 413.5 363.24 413.5 352.72 372.95 376.11" style="fill: rgb(33, 37, 38); transform-origin: 393.225px 369.68px;" id="elssenlef8shd" class="animable"></polygon><g id="el28hclkgjknu"><polygon points="372.95 376.11 372.95 386.64 413.5 363.24 413.5 352.72 372.95 376.11" style="opacity: 0.4; transform-origin: 393.225px 369.68px;" class="animable"></polygon></g><polygon points="408.7 349.97 368.16 373.37 372.95 376.11 413.5 352.72 408.7 349.97" style="fill: rgb(33, 37, 38); transform-origin: 390.83px 363.04px;" id="eld9f8satb4ng" class="animable"></polygon><polygon points="377.75 295.01 377.75 367.86 382.55 370.62 382.55 292.27 377.75 295.01" style="fill: rgb(33, 37, 38); transform-origin: 380.15px 331.445px;" id="ely9uzan5lyh" class="animable"></polygon><g id="el5sbeltvg9bh"><polygon points="377.75 295.01 377.75 367.86 382.55 370.62 382.55 292.27 377.75 295.01" style="opacity: 0.2; transform-origin: 380.15px 331.445px;" class="animable"></polygon></g><polygon points="382.55 292.27 382.55 370.62 387.34 367.84 387.34 289.5 382.55 292.27" style="fill: rgb(33, 37, 38); transform-origin: 384.945px 330.06px;" id="el9ys6kcfc3vp" class="animable"></polygon><g id="elk7oiuicx9mr"><polygon points="382.55 292.27 382.55 370.62 387.34 367.84 387.34 289.5 382.55 292.27" style="opacity: 0.4; transform-origin: 384.945px 330.06px;" class="animable"></polygon></g><polygon points="408.7 349.97 408.7 277.15 413.5 274.38 413.5 352.72 408.7 349.97" style="fill: rgb(33, 37, 38); transform-origin: 411.1px 313.55px;" id="elc43we9ot2ii" class="animable"></polygon><g id="elt5snxngrf1a"><polygon points="408.7 349.97 408.7 277.15 413.5 274.38 413.5 352.72 408.7 349.97" style="opacity: 0.2; transform-origin: 411.1px 313.55px;" class="animable"></polygon></g><polygon points="197.84 108.07 410.99 230.74 413.5 229.29 200.36 106.61 197.84 108.07" style="fill: rgb(33, 37, 38); transform-origin: 305.67px 168.675px;" id="eljjks1y08k7e" class="animable"></polygon><g id="eldhr3nqen93w"><polygon points="197.84 108.07 410.99 230.74 413.5 229.29 200.36 106.61 197.84 108.07" style="fill: rgb(255, 255, 255); opacity: 0.2; transform-origin: 305.67px 168.675px;" class="animable"></polygon></g><polygon points="193.74 161.23 398.86 279.28 398.86 266.79 193.74 148.74 193.74 161.23" style="fill: rgb(33, 37, 38); transform-origin: 296.3px 214.01px;" id="el8qkjlmegboj" class="animable"></polygon><g id="elc0xhv8fqi1g"><polygon points="193.74 161.23 398.86 279.28 398.86 266.79 193.74 148.74 193.74 161.23" style="opacity: 0.2; transform-origin: 296.3px 214.01px;" class="animable"></polygon></g><polygon points="194.59 83.47 414.36 209.97 460.79 183.28 460.79 180.05 241.02 56.79 194.59 80.23 194.59 83.47" style="fill: rgb(33, 37, 38); transform-origin: 327.69px 133.38px;" id="elep63i5mj2ef" class="animable"></polygon><polygon points="194.59 80.23 414.36 206.73 460.79 180.05 241.02 53.55 194.59 80.23" style="fill: rgb(33, 37, 38); transform-origin: 327.69px 130.14px;" id="elqw5fh40c5zs" class="animable"></polygon><g id="eluqgurl3g71"><polygon points="194.59 80.23 414.36 206.73 460.79 180.05 241.02 53.55 194.59 80.23" style="fill: rgb(255, 255, 255); opacity: 0.2; transform-origin: 327.69px 130.14px;" class="animable"></polygon></g><polygon points="414.36 206.73 414.36 209.97 460.79 183.28 460.79 180.05 414.36 206.73" style="fill: rgb(33, 37, 38); transform-origin: 437.575px 195.01px;" id="elavh7nzzv94l" class="animable"></polygon><g id="elwmmghb8tbn"><polygon points="414.36 206.73 414.36 209.97 460.79 183.28 460.79 180.05 414.36 206.73" style="opacity: 0.4; transform-origin: 437.575px 195.01px;" class="animable"></polygon></g><polygon points="167.84 169.16 159.82 164.53 185.7 144.11 193.74 148.74 167.84 169.16" style="fill: rgb(33, 37, 38); transform-origin: 176.78px 156.635px;" id="elau396rd03k" class="animable"></polygon><g id="elzrqv7fvgree"><polygon points="167.84 169.16 159.82 164.53 185.7 144.11 193.74 148.74 167.84 169.16" style="fill: rgb(255, 255, 255); opacity: 0.2; transform-origin: 176.78px 156.635px;" class="animable"></polygon></g><polygon points="167.84 169.16 167.84 179.73 159.82 175.11 159.82 164.53 167.84 169.16" style="fill: rgb(33, 37, 38); transform-origin: 163.83px 172.13px;" id="elk09co6rxv0e" class="animable"></polygon><polygon points="193.74 148.74 193.74 161.23 167.84 176.12 167.84 169.16 193.74 148.74" style="fill: rgb(33, 37, 38); transform-origin: 180.79px 162.43px;" id="elt5a3igb0h4c" class="animable"></polygon><g id="el74cm7dtl3yo"><polygon points="193.74 148.74 193.74 161.23 167.84 176.12 167.84 169.16 193.74 148.74" style="opacity: 0.4; transform-origin: 180.79px 162.43px;" class="animable"></polygon></g><polygon points="175.54 171.7 376.81 287.59 395.02 277.12 395.02 273.38 193.74 158.76 175.54 167.95 175.54 171.7" style="fill: rgb(235, 235, 235); transform-origin: 285.28px 223.175px;" id="el53fybb9zjif" class="animable"></polygon><polygon points="175.54 167.95 376.81 283.84 395.02 273.38 193.74 157.49 175.54 167.95" style="fill: rgb(255, 255, 255); transform-origin: 285.28px 220.665px;" id="elswmd2reqegj" class="animable"></polygon><polygon points="179.66 174.07 179.66 170.33 197.86 159.86 197.51 159.66 179.4 170.07 179.31 170.12 179.31 173.87 179.66 174.07" style="fill: rgb(224, 224, 224); transform-origin: 188.585px 166.865px;" id="elmo4w0x4i5kh" class="animable"></polygon><polygon points="183.6 172.6 201.81 162.13 201.46 161.93 183.34 172.34 183.25 172.4 183.25 176.14 183.6 176.34 183.6 172.6" style="fill: rgb(224, 224, 224); transform-origin: 192.53px 169.135px;" id="el60iy5ohzq2g" class="animable"></polygon><polygon points="187.55 174.87 205.76 164.41 205.4 164.2 187.29 174.62 187.2 174.67 187.2 178.41 187.55 178.62 187.55 174.87" style="fill: rgb(224, 224, 224); transform-origin: 196.48px 171.41px;" id="elywermcsqjb" class="animable"></polygon><polygon points="191.5 177.14 209.7 166.68 209.35 166.48 191.23 176.89 191.15 176.94 191.15 180.69 191.5 180.89 191.5 177.14" style="fill: rgb(224, 224, 224); transform-origin: 200.425px 173.685px;" id="eld0w9ws8dc35" class="animable"></polygon><polygon points="195.44 179.42 213.65 168.95 213.3 168.75 195.18 179.16 195.09 179.21 195.09 182.96 195.44 183.16 195.44 179.42" style="fill: rgb(224, 224, 224); transform-origin: 204.37px 175.955px;" id="elop397tuz55j" class="animable"></polygon><polygon points="199.39 181.69 217.59 171.22 217.24 171.02 199.13 181.43 199.04 181.49 199.04 185.23 199.39 185.43 199.39 181.69" style="fill: rgb(224, 224, 224); transform-origin: 208.315px 178.225px;" id="el9xo9d3qr" class="animable"></polygon><polygon points="203.34 183.96 221.54 173.5 221.19 173.29 203.07 183.71 202.99 183.76 202.99 187.5 203.34 187.71 203.34 183.96" style="fill: rgb(224, 224, 224); transform-origin: 212.265px 180.5px;" id="el84bk21p6had" class="animable"></polygon><polygon points="207.28 186.23 225.49 175.77 225.14 175.56 207.02 185.98 206.93 186.03 206.93 189.78 207.28 189.98 207.28 186.23" style="fill: rgb(224, 224, 224); transform-origin: 216.21px 182.77px;" id="elwi3da07cdto" class="animable"></polygon><polygon points="211.23 188.5 229.43 178.04 229.08 177.84 210.97 188.25 210.88 188.3 210.88 192.05 211.23 192.25 211.23 188.5" style="fill: rgb(224, 224, 224); transform-origin: 220.155px 185.045px;" id="el19g6eh6s58q" class="animable"></polygon><polygon points="215.18 190.78 233.38 180.31 233.03 180.11 214.91 190.52 214.82 190.57 214.82 194.32 215.18 194.52 215.18 190.78" style="fill: rgb(224, 224, 224); transform-origin: 224.1px 187.315px;" id="elbv32mnl1qy" class="animable"></polygon><polygon points="219.12 193.05 237.33 182.59 236.97 182.38 218.86 192.79 218.77 192.85 218.77 196.59 219.12 196.79 219.12 193.05" style="fill: rgb(224, 224, 224); transform-origin: 228.05px 189.585px;" id="elg4xd6ystnhg" class="animable"></polygon><polygon points="223.07 195.32 241.27 184.86 240.92 184.65 222.81 195.07 222.72 195.12 222.72 198.87 223.07 199.07 223.07 195.32" style="fill: rgb(224, 224, 224); transform-origin: 231.995px 191.86px;" id="elcs4tacybpb9" class="animable"></polygon><polygon points="227.02 197.59 245.22 187.13 244.87 186.93 226.75 197.34 226.66 197.39 226.66 201.14 227.02 201.34 227.02 197.59" style="fill: rgb(224, 224, 224); transform-origin: 235.94px 194.135px;" id="elv5oa6bdlnyg" class="animable"></polygon><polygon points="230.96 199.87 249.17 189.4 248.81 189.2 230.7 199.61 230.61 199.66 230.61 203.41 230.96 203.61 230.96 199.87" style="fill: rgb(224, 224, 224); transform-origin: 239.89px 196.405px;" id="el3zh4n6g2z6h" class="animable"></polygon><polygon points="234.91 202.14 253.11 191.67 252.76 191.47 234.65 201.88 234.56 201.94 234.56 205.68 234.91 205.88 234.91 202.14" style="fill: rgb(224, 224, 224); transform-origin: 243.835px 198.675px;" id="elr7crju1vx28" class="animable"></polygon><polygon points="238.86 204.41 257.06 193.95 256.71 193.74 238.59 204.16 238.5 204.21 238.5 207.95 238.86 208.16 238.86 204.41" style="fill: rgb(224, 224, 224); transform-origin: 247.78px 200.95px;" id="elzono1nklhkg" class="animable"></polygon><polygon points="242.8 206.68 261.01 196.22 260.65 196.01 242.54 206.43 242.45 206.48 242.45 210.23 242.8 210.43 242.8 206.68" style="fill: rgb(224, 224, 224); transform-origin: 251.73px 203.22px;" id="elv8ih3yetujg" class="animable"></polygon><polygon points="246.75 208.96 264.95 198.49 264.6 198.29 246.49 208.7 246.4 208.75 246.4 212.5 246.75 212.7 246.75 208.96" style="fill: rgb(224, 224, 224); transform-origin: 255.675px 205.495px;" id="el1h7gen160nq" class="animable"></polygon><polygon points="250.7 211.23 268.9 200.76 268.55 200.56 250.43 210.97 250.34 211.03 250.34 214.77 250.7 214.97 250.7 211.23" style="fill: rgb(224, 224, 224); transform-origin: 259.62px 207.765px;" id="elet927tzfjuw" class="animable"></polygon><polygon points="254.64 213.5 272.85 203.03 272.49 202.83 254.38 213.25 254.29 213.3 254.29 217.04 254.64 217.25 254.64 213.5" style="fill: rgb(224, 224, 224); transform-origin: 263.57px 210.04px;" id="elzi6vaj57rgi" class="animable"></polygon><polygon points="258.59 215.77 276.79 205.31 276.44 205.1 258.32 215.52 258.24 215.57 258.24 219.31 258.59 219.52 258.59 215.77" style="fill: rgb(224, 224, 224); transform-origin: 267.515px 212.31px;" id="el1vds7q0jjh7" class="animable"></polygon><polygon points="262.54 218.04 280.74 207.58 280.39 207.38 262.27 217.79 262.18 217.84 262.18 221.59 262.54 221.79 262.54 218.04" style="fill: rgb(224, 224, 224); transform-origin: 271.46px 214.585px;" id="elwyamgnknnta" class="animable"></polygon><polygon points="266.48 220.32 284.69 209.85 284.33 209.65 266.22 220.06 266.13 220.11 266.13 223.86 266.48 224.06 266.48 220.32" style="fill: rgb(224, 224, 224); transform-origin: 275.41px 216.855px;" id="elegolzz9t7r" class="animable"></polygon><polygon points="270.43 222.59 288.63 212.12 288.28 211.92 270.17 222.34 270.08 222.39 270.08 226.13 270.43 226.34 270.43 222.59" style="fill: rgb(224, 224, 224); transform-origin: 279.355px 219.13px;" id="elw0jds9ayl6p" class="animable"></polygon><polygon points="274.38 224.86 292.58 214.4 292.23 214.19 274.11 224.61 274.02 224.66 274.02 228.41 274.38 228.61 274.38 224.86" style="fill: rgb(224, 224, 224); transform-origin: 283.3px 221.4px;" id="elo9v56pbjwc" class="animable"></polygon><polygon points="278.32 227.13 296.52 216.67 296.17 216.47 278.06 226.88 277.97 226.93 277.97 230.68 278.32 230.88 278.32 227.13" style="fill: rgb(224, 224, 224); transform-origin: 287.245px 223.675px;" id="elg4exgfyhe6c" class="animable"></polygon><polygon points="282.27 229.41 300.47 218.94 300.12 218.74 282 229.15 281.92 229.2 281.92 232.95 282.27 233.15 282.27 229.41" style="fill: rgb(224, 224, 224); transform-origin: 291.195px 225.945px;" id="elyvtc38srkug" class="animable"></polygon><polygon points="286.21 231.68 304.42 221.21 304.06 221.01 285.95 231.43 285.86 231.48 285.86 235.22 286.21 235.42 286.21 231.68" style="fill: rgb(224, 224, 224); transform-origin: 295.14px 228.215px;" id="ela0s7btfrjn" class="animable"></polygon><polygon points="290.16 233.95 308.36 223.48 308.01 223.28 289.9 233.7 289.81 233.75 289.81 237.49 290.16 237.7 290.16 233.95" style="fill: rgb(224, 224, 224); transform-origin: 299.085px 230.49px;" id="eltg0qy5bsigq" class="animable"></polygon><polygon points="294.11 236.22 312.31 225.76 311.96 225.55 293.85 235.97 293.76 236.02 293.76 239.77 294.11 239.97 294.11 236.22" style="fill: rgb(224, 224, 224); transform-origin: 303.035px 232.76px;" id="elz2vj9o68e5j" class="animable"></polygon><polygon points="298.06 238.5 316.26 228.03 315.9 227.83 297.79 238.24 297.7 238.29 297.7 242.04 298.06 242.24 298.06 238.5" style="fill: rgb(224, 224, 224); transform-origin: 306.98px 235.035px;" id="el2zsg0a5i9kw" class="animable"></polygon><polygon points="302 240.77 320.2 230.3 319.85 230.1 301.74 240.51 301.65 240.56 301.65 244.31 302 244.51 302 240.77" style="fill: rgb(224, 224, 224); transform-origin: 310.925px 237.305px;" id="elj3xzgz74kqb" class="animable"></polygon><polygon points="305.95 243.04 324.15 232.57 323.8 232.37 305.68 242.79 305.6 242.84 305.6 246.58 305.95 246.78 305.95 243.04" style="fill: rgb(224, 224, 224); transform-origin: 314.875px 239.575px;" id="eliuh9qbrxwv" class="animable"></polygon><polygon points="309.89 245.31 328.1 234.85 327.74 234.64 309.63 245.06 309.54 245.11 309.54 248.86 309.89 249.06 309.89 245.31" style="fill: rgb(224, 224, 224); transform-origin: 318.82px 241.85px;" id="elfv4gnpgws6h" class="animable"></polygon><polygon points="313.84 247.59 332.04 237.12 331.69 236.91 313.58 247.33 313.49 247.38 313.49 251.13 313.84 251.33 313.84 247.59" style="fill: rgb(224, 224, 224); transform-origin: 322.765px 244.12px;" id="elx5l8xdy18b" class="animable"></polygon><polygon points="317.79 249.86 335.99 239.39 335.64 239.19 317.52 249.6 317.44 249.65 317.44 253.4 317.79 253.6 317.79 249.86" style="fill: rgb(224, 224, 224); transform-origin: 326.715px 246.395px;" id="eldr1c07de0p8" class="animable"></polygon><polygon points="321.73 252.13 339.94 241.66 339.58 241.46 321.47 251.88 321.38 251.93 321.38 255.67 321.73 255.88 321.73 252.13" style="fill: rgb(224, 224, 224); transform-origin: 330.66px 248.67px;" id="el0fp3uos1pvd" class="animable"></polygon><polygon points="325.68 254.4 343.88 243.94 343.53 243.73 325.42 254.15 325.33 254.2 325.33 257.94 325.68 258.15 325.68 254.4" style="fill: rgb(224, 224, 224); transform-origin: 334.605px 250.94px;" id="el7lij9qv5bvc" class="animable"></polygon><polygon points="329.63 256.68 347.83 246.21 347.48 246 329.36 256.42 329.27 256.47 329.27 260.22 329.63 260.42 329.63 256.68" style="fill: rgb(224, 224, 224); transform-origin: 338.55px 253.21px;" id="elv3wt6r8lq58" class="animable"></polygon><polygon points="333.57 258.95 351.77 248.48 351.42 248.28 333.31 258.69 333.22 258.74 333.22 262.49 333.57 262.69 333.57 258.95" style="fill: rgb(224, 224, 224); transform-origin: 342.495px 255.485px;" id="eln22q7a19f9j" class="animable"></polygon><polygon points="337.52 261.22 355.72 250.75 355.37 250.55 337.26 260.96 337.17 261.02 337.17 264.76 337.52 264.96 337.52 261.22" style="fill: rgb(224, 224, 224); transform-origin: 346.445px 257.755px;" id="el1cy41hkqyco" class="animable"></polygon><polygon points="341.47 263.49 359.67 253.02 359.31 252.82 341.2 263.24 341.12 263.29 341.12 267.03 341.47 267.24 341.47 263.49" style="fill: rgb(224, 224, 224); transform-origin: 350.395px 260.03px;" id="elzxvi5sowrrd" class="animable"></polygon><polygon points="345.41 265.76 363.61 255.29 363.26 255.09 345.15 265.51 345.06 265.56 345.06 269.31 345.41 269.51 345.41 265.76" style="fill: rgb(224, 224, 224); transform-origin: 354.335px 262.3px;" id="elnor2yrtiid" class="animable"></polygon><polygon points="349.36 268.04 367.56 257.57 367.21 257.37 349.1 267.78 349.01 267.83 349.01 271.58 349.36 271.78 349.36 268.04" style="fill: rgb(224, 224, 224); transform-origin: 358.285px 264.575px;" id="el44go2jzif3m" class="animable"></polygon><polygon points="353.31 270.31 371.51 259.84 371.15 259.64 353.04 270.06 352.95 270.11 352.95 273.85 353.31 274.05 353.31 270.31" style="fill: rgb(224, 224, 224); transform-origin: 362.23px 266.845px;" id="el85nkr76dlvh" class="animable"></polygon><polygon points="357.25 272.58 375.45 262.11 375.1 261.91 356.99 272.33 356.9 272.38 356.9 276.12 357.25 276.33 357.25 272.58" style="fill: rgb(224, 224, 224); transform-origin: 366.175px 269.12px;" id="elwdrfktgrsej" class="animable"></polygon><polygon points="361.2 274.85 379.4 264.38 379.05 264.18 360.94 274.6 360.85 274.65 360.85 278.4 361.2 278.6 361.2 274.85" style="fill: rgb(224, 224, 224); transform-origin: 370.125px 271.39px;" id="ele1s72ffo27u" class="animable"></polygon><polygon points="365.15 277.13 383.35 266.66 382.99 266.45 364.88 276.87 364.79 276.92 364.79 280.67 365.15 280.87 365.15 277.13" style="fill: rgb(224, 224, 224); transform-origin: 374.07px 273.66px;" id="elowmh9g9zzq" class="animable"></polygon><polygon points="369.09 279.4 387.29 268.93 386.94 268.73 368.83 279.14 368.74 279.19 368.74 282.94 369.09 283.14 369.09 279.4" style="fill: rgb(224, 224, 224); transform-origin: 378.015px 275.935px;" id="eljtak44gwwl" class="animable"></polygon><polygon points="390.89 271 372.77 281.42 372.69 281.47 372.69 285.21 373.04 285.42 373.04 281.67 391.24 271.2 390.89 271" style="fill: rgb(224, 224, 224); transform-origin: 381.965px 278.21px;" id="eltserrb8ix0p" class="animable"></polygon><path d="M205.24,164.62l-10,6.42-1.44-.83.67-2.5a1.16,1.16,0,0,1,.65-.75l9.71-4.12,1.44.83Z" style="fill: rgb(69, 90, 100); transform-origin: 200.035px 166.94px;" id="elmqbpyvd9949" class="animable"></path><path d="M206.27,164.69l-11,6.35.67-2.5a1.13,1.13,0,0,1,.65-.75l9.71-4.12Z" style="fill: rgb(55, 71, 79); transform-origin: 200.785px 167.355px;" id="elol7yq45545g" class="animable"></path><path d="M197.31,160.09l-10,6.41-1.44-.82.67-2.5a1.13,1.13,0,0,1,.65-.75l9.71-4.13,1.44.83Z" style="fill: rgb(69, 90, 100); transform-origin: 192.105px 162.4px;" id="elbzfqwxoenh7" class="animable"></path><path d="M198.35,160.16l-11,6.34L188,164a1.11,1.11,0,0,1,.65-.75l9.71-4.13Z" style="fill: rgb(55, 71, 79); transform-origin: 192.855px 162.81px;" id="elghbbkqrrckk" class="animable"></path><path d="M382.92,266.93l-10,6.42-1.44-.83.67-2.5a1.13,1.13,0,0,1,.66-.74l9.7-4.13L384,266Z" style="fill: rgb(69, 90, 100); transform-origin: 377.74px 269.25px;" id="el5qociezcb4" class="animable"></path><path d="M384,267l-11,6.35.67-2.5a1.16,1.16,0,0,1,.65-.75L384,266Z" style="fill: rgb(55, 71, 79); transform-origin: 378.5px 269.675px;" id="elbku1plvrn48" class="animable"></path><path d="M375,262.39l-10,6.41-1.44-.82.67-2.5a1.13,1.13,0,0,1,.65-.75l9.71-4.13,1.44.83Z" style="fill: rgb(69, 90, 100); transform-origin: 369.795px 264.7px;" id="eloctrg8ktrmb" class="animable"></path><path d="M376.08,262.46l-11,6.34.67-2.49a1.11,1.11,0,0,1,.65-.75l9.71-4.13Z" style="fill: rgb(55, 71, 79); transform-origin: 370.595px 265.115px;" id="elrifq73jfz0e" class="animable"></path><path d="M371.05,260.08l-10,6.42-1.44-.83.68-2.5a1.16,1.16,0,0,1,.65-.75l9.7-4.12,1.44.82Z" style="fill: rgb(69, 90, 100); transform-origin: 365.845px 262.4px;" id="elv93l4m0x6qj" class="animable"></path><path d="M372.08,260.15l-11,6.35.67-2.5a1.13,1.13,0,0,1,.65-.75l9.71-4.13Z" style="fill: rgb(55, 71, 79); transform-origin: 366.595px 262.81px;" id="elilgw3ofwfsa" class="animable"></path><path d="M363.13,255.55l-10,6.41-1.44-.83.67-2.49a1.15,1.15,0,0,1,.66-.75l9.7-4.13,1.44.83Z" style="fill: rgb(69, 90, 100); transform-origin: 357.925px 257.86px;" id="elh8fhbq0p1h4" class="animable"></path><path d="M364.16,255.62l-11,6.34.67-2.49a1.11,1.11,0,0,1,.65-.75l9.71-4.13Z" style="fill: rgb(55, 71, 79); transform-origin: 358.675px 258.275px;" id="el278wfchbjr4" class="animable"></path><path d="M359.13,253.24l-10,6.41-1.44-.82.68-2.5a1.13,1.13,0,0,1,.65-.75l9.71-4.13,1.43.83Z" style="fill: rgb(69, 90, 100); transform-origin: 353.925px 255.55px;" id="elya7967xbnqp" class="animable"></path><path d="M360.16,253.31l-11,6.34.67-2.49a1.17,1.17,0,0,1,.66-.75l9.7-4.13Z" style="fill: rgb(55, 71, 79); transform-origin: 354.675px 255.965px;" id="elgqxatkr4ux8" class="animable"></path><path d="M355.13,250.93l-10,6.42-1.43-.83.67-2.5a1.16,1.16,0,0,1,.65-.75l9.71-4.12,1.44.83Z" style="fill: rgb(69, 90, 100); transform-origin: 349.935px 253.25px;" id="eluvgw52aqwxb" class="animable"></path><path d="M356.17,251l-11,6.35.68-2.5a1.13,1.13,0,0,1,.65-.75l9.71-4.12Z" style="fill: rgb(55, 71, 79); transform-origin: 350.69px 253.665px;" id="elxn4f6of22g" class="animable"></path><path d="M347.35,246.46l-10,6.41-1.43-.82.67-2.5a1.13,1.13,0,0,1,.65-.75l9.71-4.13,1.44.83Z" style="fill: rgb(69, 90, 100); transform-origin: 342.155px 248.77px;" id="elvm7sj1waiu" class="animable"></path><path d="M348.39,246.53l-11,6.34.68-2.49a1.11,1.11,0,0,1,.65-.75l9.71-4.13Z" style="fill: rgb(55, 71, 79); transform-origin: 342.91px 249.185px;" id="elawpdh9ryoc6" class="animable"></path><path d="M343.35,244.15l-10,6.42-1.44-.83.67-2.5a1.13,1.13,0,0,1,.65-.75l9.71-4.12,1.44.82Z" style="fill: rgb(69, 90, 100); transform-origin: 338.145px 246.47px;" id="el3herggmib7" class="animable"></path><path d="M344.39,244.22l-11,6.35.67-2.5a1.13,1.13,0,0,1,.65-.75l9.71-4.13Z" style="fill: rgb(55, 71, 79); transform-origin: 338.905px 246.88px;" id="elfpkijzzaqjw" class="animable"></path><path d="M335.43,239.62l-10,6.41L324,245.2l.67-2.49a1.11,1.11,0,0,1,.65-.75l9.71-4.13,1.44.83Z" style="fill: rgb(69, 90, 100); transform-origin: 330.235px 241.93px;" id="elnw78yd8288" class="animable"></path><path d="M336.47,239.69l-11,6.34.67-2.5a1.12,1.12,0,0,1,.65-.74l9.71-4.13Z" style="fill: rgb(55, 71, 79); transform-origin: 330.985px 242.345px;" id="el0m68d27ytwe9" class="animable"></path><path d="M331.44,237.31l-10,6.41L320,242.9l.67-2.5a1.15,1.15,0,0,1,.66-.75l9.7-4.13,1.44.83Z" style="fill: rgb(69, 90, 100); transform-origin: 326.235px 239.62px;" id="elq6b1tcnm3m" class="animable"></path><path d="M332.47,237.38l-11,6.34.67-2.49a1.11,1.11,0,0,1,.65-.75l9.71-4.13Z" style="fill: rgb(55, 71, 79); transform-origin: 326.985px 240.035px;" id="eledzfbjqt9tj" class="animable"></path><path d="M327.44,235l-10,6.42-1.44-.83.68-2.5a1.16,1.16,0,0,1,.65-.75l9.71-4.12,1.43.82Z" style="fill: rgb(69, 90, 100); transform-origin: 322.235px 237.32px;" id="eltozslabimsl" class="animable"></path><path d="M328.47,235.07l-11,6.35.67-2.5a1.17,1.17,0,0,1,.66-.75l9.7-4.13Z" style="fill: rgb(55, 71, 79); transform-origin: 322.985px 237.73px;" id="elf07lteuc4v" class="animable"></path><path d="M319.69,230.54l-10,6.41-1.44-.83.67-2.49a1.11,1.11,0,0,1,.65-.75l9.71-4.13,1.44.83Z" style="fill: rgb(69, 90, 100); transform-origin: 314.485px 232.85px;" id="elnnvff5hzagq" class="animable"></path><path d="M320.73,230.61l-11,6.34.67-2.5a1.12,1.12,0,0,1,.65-.74l9.71-4.13Z" style="fill: rgb(55, 71, 79); transform-origin: 315.245px 233.265px;" id="eldudaltawea4" class="animable"></path><path d="M315.7,228.23l-10,6.41-1.44-.82.67-2.5a1.17,1.17,0,0,1,.66-.75l9.7-4.13,1.44.83Z" style="fill: rgb(69, 90, 100); transform-origin: 310.495px 230.54px;" id="el91c9o1spa4q" class="animable"></path><path d="M316.73,228.3l-11,6.34.67-2.49a1.11,1.11,0,0,1,.65-.75l9.71-4.13Z" style="fill: rgb(55, 71, 79); transform-origin: 311.245px 230.955px;" id="elpijls40din" class="animable"></path><path d="M307.78,223.69l-10,6.42-1.44-.83.67-2.49a1.1,1.1,0,0,1,.66-.75l9.7-4.13,1.44.83Z" style="fill: rgb(69, 90, 100); transform-origin: 302.575px 226.01px;" id="el2qz0g8vcjab" class="animable"></path><path d="M308.81,223.76l-11,6.35.67-2.5a1.16,1.16,0,0,1,.65-.75l9.71-4.12Z" style="fill: rgb(55, 71, 79); transform-origin: 303.325px 226.425px;" id="elj8pke1p2v1" class="animable"></path><path d="M303.78,221.39l-10,6.41-1.44-.83.68-2.49a1.13,1.13,0,0,1,.65-.75l9.71-4.13,1.43.83Z" style="fill: rgb(69, 90, 100); transform-origin: 298.575px 223.7px;" id="elc7ae2xe2vh" class="animable"></path><path d="M304.81,221.46l-11,6.34.67-2.49a1.13,1.13,0,0,1,.66-.75l9.7-4.13Z" style="fill: rgb(55, 71, 79); transform-origin: 299.325px 224.115px;" id="elnknmee9yqp9" class="animable"></path><path d="M299.78,219.08l-10,6.42-1.43-.83.67-2.5a1.13,1.13,0,0,1,.65-.75l9.71-4.12,1.44.82Z" style="fill: rgb(69, 90, 100); transform-origin: 294.585px 221.4px;" id="elp40nhcqbjwm" class="animable"></path><path d="M300.82,219.15l-11,6.35.68-2.5a1.13,1.13,0,0,1,.65-.75l9.71-4.13Z" style="fill: rgb(55, 71, 79); transform-origin: 295.34px 221.81px;" id="el4a8e97my19a" class="animable"></path><path d="M292,214.61,282,221l-1.44-.83.68-2.49a1.11,1.11,0,0,1,.65-.75l9.71-4.13,1.43.83Z" style="fill: rgb(69, 90, 100); transform-origin: 286.795px 216.9px;" id="elin0r2y3p2q7" class="animable"></path><path d="M293,214.68,282,221l.68-2.5a1.12,1.12,0,0,1,.65-.74l9.7-4.13Z" style="fill: rgb(55, 71, 79); transform-origin: 287.515px 217.315px;" id="elm4cb1htbxr" class="animable"></path><path d="M288,212.3l-10,6.41-1.43-.82.67-2.5a1.13,1.13,0,0,1,.65-.75l9.71-4.13,1.44.83Z" style="fill: rgb(69, 90, 100); transform-origin: 282.805px 214.61px;" id="elx980ltvdbt" class="animable"></path><path d="M289,212.37l-11,6.34.68-2.49a1.11,1.11,0,0,1,.65-.75l9.71-4.13Z" style="fill: rgb(55, 71, 79); transform-origin: 283.52px 215.025px;" id="ellf5plug4x6" class="animable"></path><path d="M280.08,207.76l-10,6.42-1.43-.83.67-2.5a1.12,1.12,0,0,1,.65-.74l9.71-4.13,1.44.83Z" style="fill: rgb(69, 90, 100); transform-origin: 274.885px 210.08px;" id="eleap2rdbyayh" class="animable"></path><path d="M281.12,207.83l-11,6.35.68-2.5a1.16,1.16,0,0,1,.65-.75l9.71-4.12Z" style="fill: rgb(55, 71, 79); transform-origin: 275.64px 210.495px;" id="elpnsrlomd8l" class="animable"></path><path d="M276.09,205.46l-10,6.41-1.44-.83.67-2.49a1.1,1.1,0,0,1,.66-.75l9.7-4.13,1.44.83Z" style="fill: rgb(69, 90, 100); transform-origin: 270.885px 207.77px;" id="elunc7e1bktfe" class="animable"></path><path d="M277.12,205.53l-11,6.34.67-2.49a1.11,1.11,0,0,1,.65-.75l9.71-4.13Z" style="fill: rgb(55, 71, 79); transform-origin: 271.635px 208.185px;" id="el2bgaonxtjnm" class="animable"></path><path d="M272.09,203.15l-10,6.41-1.44-.82.68-2.5a1.13,1.13,0,0,1,.65-.75l9.7-4.13,1.44.83Z" style="fill: rgb(69, 90, 100); transform-origin: 266.885px 205.46px;" id="elxnlg1yach1l" class="animable"></path><path d="M273.12,203.22l-11,6.34.67-2.49a1.12,1.12,0,0,1,.66-.75l9.7-4.13Z" style="fill: rgb(55, 71, 79); transform-origin: 267.635px 205.875px;" id="elx6biscxttof" class="animable"></path><path d="M264.51,198.76l-10,6.42-1.43-.83.67-2.5a1.16,1.16,0,0,1,.65-.75l9.71-4.12,1.44.82Z" style="fill: rgb(69, 90, 100); transform-origin: 259.315px 201.08px;" id="el7nc8rruajnu" class="animable"></path><path d="M265.55,198.83l-11,6.35.68-2.5a1.13,1.13,0,0,1,.65-.75l9.71-4.13Z" style="fill: rgb(55, 71, 79); transform-origin: 260.07px 201.49px;" id="elx22b4seebx" class="animable"></path><path d="M260.51,196.45l-10,6.42-1.44-.83.67-2.5a1.12,1.12,0,0,1,.65-.74l9.71-4.13,1.44.83Z" style="fill: rgb(69, 90, 100); transform-origin: 255.305px 198.77px;" id="ellwf9x1454o" class="animable"></path><path d="M261.55,196.52l-11,6.35.67-2.5a1.16,1.16,0,0,1,.65-.75l9.71-4.12Z" style="fill: rgb(55, 71, 79); transform-origin: 256.065px 199.185px;" id="elimnehzejwkn" class="animable"></path><path d="M252.59,191.92l-10,6.42-1.44-.83.67-2.5a1.13,1.13,0,0,1,.65-.75l9.71-4.12,1.44.82Z" style="fill: rgb(69, 90, 100); transform-origin: 247.385px 194.24px;" id="elm9fpdsstfbe" class="animable"></path><path d="M253.63,192l-11,6.35.67-2.5a1.13,1.13,0,0,1,.65-.75l9.71-4.13Z" style="fill: rgb(55, 71, 79); transform-origin: 248.145px 194.66px;" id="elon1zrx1e45r" class="animable"></path><path d="M248.6,189.61l-10,6.42-1.44-.83.67-2.5a1.2,1.2,0,0,1,.66-.75l9.7-4.12,1.44.83Z" style="fill: rgb(69, 90, 100); transform-origin: 243.395px 191.93px;" id="eljara3a566y" class="animable"></path><path d="M249.63,189.68l-11,6.35.67-2.5a1.13,1.13,0,0,1,.65-.75l9.71-4.12Z" style="fill: rgb(55, 71, 79); transform-origin: 244.145px 192.345px;" id="eldk36phdo3u7" class="animable"></path><path d="M244.6,187.3l-10,6.42-1.44-.83.68-2.49a1.11,1.11,0,0,1,.65-.75l9.71-4.13,1.43.83Z" style="fill: rgb(69, 90, 100); transform-origin: 239.395px 189.62px;" id="elag8s3dhwv0q" class="animable"></path><path d="M245.63,187.37l-11,6.35.67-2.5a1.2,1.2,0,0,1,.66-.75l9.7-4.12Z" style="fill: rgb(55, 71, 79); transform-origin: 240.145px 190.035px;" id="elt1zwjj926ja" class="animable"></path><path d="M236.82,182.83l-10,6.42-1.44-.83.68-2.5a1.16,1.16,0,0,1,.65-.75l9.7-4.12,1.44.82Z" style="fill: rgb(69, 90, 100); transform-origin: 231.615px 185.15px;" id="el1s8b70c0h89" class="animable"></path><path d="M237.85,182.9l-11,6.35.67-2.5a1.15,1.15,0,0,1,.66-.75l9.7-4.13Z" style="fill: rgb(55, 71, 79); transform-origin: 232.365px 185.56px;" id="elm2unqc4ajeg" class="animable"></path><path d="M232.82,180.52l-10,6.42-1.43-.83.67-2.5a1.12,1.12,0,0,1,.65-.74l9.71-4.13,1.44.83Z" style="fill: rgb(69, 90, 100); transform-origin: 227.625px 182.84px;" id="elwur45og01w" class="animable"></path><path d="M233.86,180.59l-11,6.35.68-2.5a1.16,1.16,0,0,1,.65-.75l9.71-4.12Z" style="fill: rgb(55, 71, 79); transform-origin: 228.38px 183.255px;" id="el1n5mkicos2l" class="animable"></path><path d="M224.9,176l-10,6.41-1.44-.82.68-2.5a1.13,1.13,0,0,1,.65-.75l9.71-4.13,1.43.83Z" style="fill: rgb(69, 90, 100); transform-origin: 219.695px 178.31px;" id="el6240krr2z9v" class="animable"></path><path d="M225.93,176.06l-11,6.34.68-2.49a1.13,1.13,0,0,1,.65-.75l9.7-4.13Z" style="fill: rgb(55, 71, 79); transform-origin: 220.445px 178.715px;" id="elyyrxr9rp6z" class="animable"></path><path d="M220.9,173.68l-10,6.42-1.44-.83.67-2.5a1.16,1.16,0,0,1,.65-.75l9.71-4.12,1.44.83Z" style="fill: rgb(69, 90, 100); transform-origin: 215.695px 176px;" id="el69lmd6h55bv" class="animable"></path><path d="M221.94,173.75l-11,6.35.67-2.5a1.13,1.13,0,0,1,.65-.75l9.71-4.12Z" style="fill: rgb(55, 71, 79); transform-origin: 216.455px 176.415px;" id="el1dwp4ixxifm" class="animable"></path><path d="M216.91,171.37l-10,6.42-1.44-.83.67-2.49a1.13,1.13,0,0,1,.66-.75l9.7-4.13,1.44.83Z" style="fill: rgb(69, 90, 100); transform-origin: 211.705px 173.69px;" id="elvw0l1ktb9gr" class="animable"></path><path d="M217.94,171.44l-11,6.35.67-2.5a1.16,1.16,0,0,1,.65-.75l9.71-4.12Z" style="fill: rgb(55, 71, 79); transform-origin: 212.455px 174.105px;" id="elb804o7bas1u" class="animable"></path><path d="M209.23,166.93l-10,6.41-1.43-.82.67-2.5a1.13,1.13,0,0,1,.65-.75l9.71-4.13,1.44.83Z" style="fill: rgb(69, 90, 100); transform-origin: 204.035px 169.24px;" id="elqbuq4dqa5cc" class="animable"></path><path d="M210.27,167l-11,6.34.68-2.49a1.13,1.13,0,0,1,.65-.75l9.71-4.13Z" style="fill: rgb(55, 71, 79); transform-origin: 204.79px 169.655px;" id="el9pny963v879" class="animable"></path><polygon points="372.96 287.21 364.95 282.58 390.82 262.16 398.86 266.79 372.96 287.21" style="fill: rgb(33, 37, 38); transform-origin: 381.905px 274.685px;" id="eltnlldj9a5ub" class="animable"></polygon><g id="elnp6ydwo9wa"><polygon points="372.96 287.21 364.95 282.58 390.82 262.16 398.86 266.79 372.96 287.21" style="fill: rgb(255, 255, 255); opacity: 0.2; transform-origin: 381.905px 274.685px;" class="animable"></polygon></g><polygon points="372.96 287.21 372.96 297.78 364.95 293.16 364.95 282.58 372.96 287.21" style="fill: rgb(33, 37, 38); transform-origin: 368.955px 290.18px;" id="elmkt39x9v87e" class="animable"></polygon><polygon points="398.86 266.79 398.86 279.28 372.96 294.17 372.96 287.21 398.86 266.79" style="fill: rgb(33, 37, 38); transform-origin: 385.91px 280.48px;" id="el8rat4iz8vdt" class="animable"></polygon><g id="elvkws5ikwp3f"><polygon points="398.86 266.79 398.86 279.28 372.96 294.17 372.96 287.21 398.86 266.79" style="opacity: 0.4; transform-origin: 385.91px 280.48px;" class="animable"></polygon></g><path d="M297,160.29c10.07-.81,25.26,14.54,25.26,14.54l-13,38.55S294.09,198,284,198.84Z" style="fill: rgb(245, 245, 245); transform-origin: 303.13px 186.82px;" id="eliw0zvuw7ttl" class="animable"></path><path d="M297,160.29c10.07-.81,24.33,9.28,24.33,9.28l-13,38.55S294.09,198,284,198.84Z" style="fill: rgb(255, 255, 255); transform-origin: 302.665px 184.182px;" id="eludu8ugsvhko" class="animable"></path><path d="M284,198.84s-2.76-9-25.25-14.54l13-38.55c22.49,5.54,25.25,14.54,25.25,14.54l-13,38.55" style="fill: rgb(245, 245, 245); transform-origin: 277.875px 172.295px;" id="elz03fuikz62s" class="animable"></path><path d="M317.43,172.63a.28.28,0,0,0,.22-.11.27.27,0,0,0-.06-.38c-.45-.33-11.28-8.19-19.34-7.36a.27.27,0,0,0-.24.3.25.25,0,0,0,.29.24c7.88-.8,18.86,7.18,19,7.26A.33.33,0,0,0,317.43,172.63Z" style="fill: rgb(221, 221, 221); transform-origin: 307.856px 168.674px;" id="elkpf2jfvch0e" class="animable"></path><path d="M316.51,175.28a.27.27,0,0,0,.22-.11.28.28,0,0,0-.05-.38c-.46-.34-11.25-8.2-19.35-7.36a.27.27,0,0,0-.24.3.26.26,0,0,0,.29.24c7.9-.81,18.86,7.17,19,7.25A.27.27,0,0,0,316.51,175.28Z" style="fill: rgb(221, 221, 221); transform-origin: 306.935px 171.324px;" id="elfe4kl6i4o9u" class="animable"></path><path d="M315.6,177.93a.28.28,0,0,0,.22-.12.27.27,0,0,0-.06-.37c-.46-.34-11.26-8.2-19.35-7.36a.27.27,0,0,0-.24.3.28.28,0,0,0,.3.24c7.88-.81,18.86,7.17,19,7.25A.25.25,0,0,0,315.6,177.93Z" style="fill: rgb(221, 221, 221); transform-origin: 306.018px 173.974px;" id="eljn5ld03n7mi" class="animable"></path><path d="M314.68,180.57a.24.24,0,0,0,.22-.11.26.26,0,0,0-.06-.37c-.45-.34-11.27-8.2-19.34-7.36a.28.28,0,0,0-.25.29.26.26,0,0,0,.3.24c7.88-.8,18.86,7.18,19,7.26A.25.25,0,0,0,314.68,180.57Z" style="fill: rgb(221, 221, 221); transform-origin: 305.101px 176.619px;" id="elh5amfx0x0a" class="animable"></path><path d="M313.77,183.22a.26.26,0,0,0,.21-.11.28.28,0,0,0-.05-.38c-.46-.33-11.28-8.19-19.35-7.35a.26.26,0,0,0-.24.29.25.25,0,0,0,.29.24c7.89-.8,18.87,7.18,19,7.26A.34.34,0,0,0,313.77,183.22Z" style="fill: rgb(221, 221, 221); transform-origin: 304.185px 179.269px;" id="elzh7axnclgen" class="animable"></path><path d="M312.85,185.87a.26.26,0,0,0,.21-.11.27.27,0,0,0-.05-.38c-.46-.33-11.28-8.18-19.35-7.36a.28.28,0,0,0-.24.3.26.26,0,0,0,.3.24c7.87-.8,18.86,7.18,19,7.26A.3.3,0,0,0,312.85,185.87Z" style="fill: rgb(221, 221, 221); transform-origin: 303.268px 181.915px;" id="el3hrgjy0dj7d" class="animable"></path><path d="M311.93,188.52a.28.28,0,0,0,.22-.11.27.27,0,0,0-.06-.38c-.46-.34-11.28-8.19-19.34-7.36a.29.29,0,0,0-.25.3.26.26,0,0,0,.3.24c7.88-.81,18.86,7.17,19,7.26A.3.3,0,0,0,311.93,188.52Z" style="fill: rgb(221, 221, 221); transform-origin: 302.351px 184.564px;" id="elbgphlwnxj4i" class="animable"></path><path d="M311,191.17a.27.27,0,0,0,.22-.11.27.27,0,0,0-.06-.38c-.45-.34-11.27-8.19-19.34-7.36a.27.27,0,0,0-.24.3.26.26,0,0,0,.29.24c7.88-.81,18.86,7.17,19,7.25A.27.27,0,0,0,311,191.17Z" style="fill: rgb(221, 221, 221); transform-origin: 301.426px 187.214px;" id="elia3tbubn5sl" class="animable"></path><path d="M310.1,193.81a.24.24,0,0,0,.21-.11.26.26,0,0,0-.05-.37c-.46-.34-11.27-8.2-19.35-7.36a.27.27,0,0,0-.24.29.26.26,0,0,0,.3.24c7.88-.8,18.86,7.18,19,7.26A.24.24,0,0,0,310.1,193.81Z" style="fill: rgb(221, 221, 221); transform-origin: 300.517px 189.859px;" id="elb3ef508pwcd" class="animable"></path><path d="M309.18,196.46a.28.28,0,0,0,.22-.11.27.27,0,0,0-.06-.38c-.46-.33-11.28-8.19-19.34-7.35a.27.27,0,0,0-.25.29.26.26,0,0,0,.3.24c7.89-.8,18.86,7.18,19,7.26A.24.24,0,0,0,309.18,196.46Z" style="fill: rgb(221, 221, 221); transform-origin: 299.601px 192.509px;" id="elu64m8svzjgp" class="animable"></path><path d="M308.26,199.11a.27.27,0,0,0,.22-.11.27.27,0,0,0-.06-.38c-.45-.33-11.25-8.2-19.34-7.36a.27.27,0,0,0-.24.3.25.25,0,0,0,.29.24c7.89-.81,18.86,7.18,19,7.26A.33.33,0,0,0,308.26,199.11Z" style="fill: rgb(221, 221, 221); transform-origin: 298.686px 195.154px;" id="eld4epvy9hqx7" class="animable"></path><path d="M307.35,201.76a.26.26,0,0,0,.21-.11.27.27,0,0,0-.05-.38c-.46-.33-11.25-8.19-19.35-7.36a.28.28,0,0,0-.24.3.26.26,0,0,0,.3.24c7.88-.81,18.86,7.18,19,7.26A.3.3,0,0,0,307.35,201.76Z" style="fill: rgb(221, 221, 221); transform-origin: 297.768px 197.804px;" id="eljp739c7wp09" class="animable"></path><path d="M292.82,162.72h.08a.27.27,0,0,0,.18-.34c-.09-.3-2.5-7.4-20.23-11.72a.26.26,0,0,0-.33.2.26.26,0,0,0,.2.32c17.38,4.24,19.82,11.29,19.85,11.36A.26.26,0,0,0,292.82,162.72Z" style="fill: rgb(221, 221, 221); transform-origin: 282.802px 156.685px;" id="el6lt6ewrldif" class="animable"></path><path d="M291.91,165.42l.08,0a.26.26,0,0,0,.18-.33c-.09-.3-2.5-7.4-20.24-11.72a.26.26,0,0,0-.32.19.27.27,0,0,0,.2.33c17.38,4.24,19.82,11.29,19.85,11.36A.27.27,0,0,0,291.91,165.42Z" style="fill: rgb(221, 221, 221); transform-origin: 281.892px 159.391px;" id="el4ccsan8cp71" class="animable"></path><path d="M291,168.11h.08a.28.28,0,0,0,.18-.34c-.1-.3-2.5-7.39-20.24-11.72a.26.26,0,0,0-.32.2.27.27,0,0,0,.19.33c17.39,4.24,19.83,11.28,19.85,11.35A.28.28,0,0,0,291,168.11Z" style="fill: rgb(221, 221, 221); transform-origin: 280.981px 162.076px;" id="eljy9rnz6yrf" class="animable"></path><path d="M290.09,170.81h.08a.28.28,0,0,0,.18-.34c-.1-.3-2.5-7.4-20.24-11.72a.25.25,0,0,0-.32.2.26.26,0,0,0,.19.32c17.39,4.24,19.83,11.29,19.85,11.36A.28.28,0,0,0,290.09,170.81Z" style="fill: rgb(221, 221, 221); transform-origin: 280.071px 164.775px;" id="elzfrei3zzj8c" class="animable"></path><path d="M289.18,173.51l.08,0a.27.27,0,0,0,.18-.33c-.1-.3-2.5-7.4-20.24-11.72a.27.27,0,0,0-.33.2.27.27,0,0,0,.2.32c17.39,4.24,19.83,11.29,19.85,11.36A.29.29,0,0,0,289.18,173.51Z" style="fill: rgb(221, 221, 221); transform-origin: 279.157px 167.481px;" id="elt2ip9yotsam" class="animable"></path><path d="M288.27,176.2h.08a.27.27,0,0,0,.18-.34c-.1-.3-2.5-7.39-20.24-11.72a.27.27,0,1,0-.13.53C285.55,168.9,288,176,288,176A.27.27,0,0,0,288.27,176.2Z" style="fill: rgb(221, 221, 221); transform-origin: 278.247px 170.166px;" id="elpxdhukewww8" class="animable"></path><path d="M287.36,178.9h.08a.27.27,0,0,0,.17-.34c-.09-.3-2.49-7.39-20.23-11.72a.27.27,0,0,0-.33.2.29.29,0,0,0,.2.33c17.39,4.24,19.83,11.28,19.85,11.35A.27.27,0,0,0,287.36,178.9Z" style="fill: rgb(221, 221, 221); transform-origin: 277.334px 172.866px;" id="el8mdaxnvi1am" class="animable"></path><path d="M286.45,181.6h.08a.27.27,0,0,0,.17-.34c-.09-.3-2.5-7.4-20.23-11.72a.27.27,0,0,0-.33.2.26.26,0,0,0,.2.32c17.39,4.24,19.83,11.29,19.85,11.36A.27.27,0,0,0,286.45,181.6Z" style="fill: rgb(221, 221, 221); transform-origin: 276.423px 175.566px;" id="elac3hnx7gnme" class="animable"></path><path d="M285.54,184.3l.08,0a.25.25,0,0,0,.17-.33c-.09-.3-2.5-7.4-20.23-11.72a.27.27,0,1,0-.13.52c17.39,4.24,19.82,11.29,19.85,11.36A.28.28,0,0,0,285.54,184.3Z" style="fill: rgb(221, 221, 221); transform-origin: 275.5px 178.266px;" id="elngbhbufs4p" class="animable"></path><path d="M284.62,187h.09a.26.26,0,0,0,.17-.34c-.09-.3-2.5-7.39-20.23-11.72a.28.28,0,0,0-.33.2.27.27,0,0,0,.2.33c17.39,4.24,19.82,11.28,19.85,11.35A.26.26,0,0,0,284.62,187Z" style="fill: rgb(221, 221, 221); transform-origin: 274.604px 180.967px;" id="el1p06y8apuny" class="animable"></path><path d="M283.71,189.69h.08a.27.27,0,0,0,.18-.34c-.09-.3-2.5-7.4-20.24-11.72a.27.27,0,1,0-.12.52c17.38,4.24,19.82,11.29,19.85,11.36A.26.26,0,0,0,283.71,189.69Z" style="fill: rgb(221, 221, 221); transform-origin: 273.671px 183.65px;" id="elfho7x49cys7" class="animable"></path><path d="M282.8,192.39h.08a.27.27,0,0,0,.18-.34c-.09-.3-2.5-7.4-20.24-11.72a.27.27,0,0,0-.13.52c17.45,4.25,19.83,11.29,19.86,11.36A.27.27,0,0,0,282.8,192.39Z" style="fill: rgb(221, 221, 221); transform-origin: 272.795px 186.359px;" id="el2umoickpf0g" class="animable"></path><polygon points="256.99 185.15 314.28 218.12 314.28 212.52 256.99 179.54 254.1 181.2 256.99 185.15" style="fill: rgb(33, 37, 38); transform-origin: 284.19px 198.83px;" id="elkvunl7v51tr" class="animable"></polygon><g id="el2how0ne9v0y"><polygon points="256.99 185.15 314.28 218.12 314.28 212.52 256.99 179.54 254.1 181.2 256.99 185.15" style="fill: rgb(255, 255, 255); opacity: 0.2; transform-origin: 284.19px 198.83px;" class="animable"></polygon></g><polygon points="254.1 186.8 311.4 219.78 311.4 214.17 254.1 181.2 254.1 186.8" style="fill: rgb(33, 37, 38); transform-origin: 282.75px 200.49px;" id="eleenl3zacg7l" class="animable"></polygon><polygon points="314.28 218.12 311.4 219.78 311.4 214.17 314.28 212.52 314.28 218.12" style="fill: rgb(33, 37, 38); transform-origin: 312.84px 216.15px;" id="el67q5arfkj8o" class="animable"></polygon><g id="elw7klile99t"><polygon points="314.28 218.12 311.4 219.78 311.4 214.17 314.28 212.52 314.28 218.12" style="opacity: 0.4; transform-origin: 312.84px 216.15px;" class="animable"></polygon></g><polygon points="290.96 298.79 295.76 301.53 305.33 296.01 305.33 294.19 300.52 293.27 290.96 296.97 290.96 298.79" style="fill: rgb(33, 37, 38); transform-origin: 298.145px 297.4px;" id="elwz3d1a7qmn" class="animable"></polygon><polygon points="290.96 296.97 295.76 299.71 305.33 294.19 300.52 291.45 290.96 296.97" style="fill: rgb(33, 37, 38); transform-origin: 298.145px 295.58px;" id="el6q6vfxycsc" class="animable"></polygon><g id="el3mqpojcg7vh"><polygon points="290.96 296.97 295.76 299.71 305.33 294.19 300.52 291.45 290.96 296.97" style="fill: rgb(255, 255, 255); opacity: 0.2; transform-origin: 298.145px 295.58px;" class="animable"></polygon></g><polygon points="295.76 299.71 295.76 301.53 305.33 296.01 305.33 294.19 295.76 299.71" style="fill: rgb(33, 37, 38); transform-origin: 300.545px 297.86px;" id="elp2cwb0kh64q" class="animable"></polygon><g id="elt9pyjtsj1n"><polygon points="295.76 299.71 295.76 301.53 305.33 296.01 305.33 294.19 295.76 299.71" style="opacity: 0.4; transform-origin: 300.545px 297.86px;" class="animable"></polygon></g><polygon points="281.14 293.12 285.94 295.87 295.5 290.35 295.5 288.53 290.7 287.61 281.14 291.3 281.14 293.12" style="fill: rgb(33, 37, 38); transform-origin: 288.32px 291.74px;" id="ell8wozz0m7uh" class="animable"></polygon><polygon points="281.14 291.3 285.94 294.05 295.5 288.53 290.7 285.78 281.14 291.3" style="fill: rgb(33, 37, 38); transform-origin: 288.32px 289.915px;" id="el5hsbbitdsbw" class="animable"></polygon><g id="elxjnxjv2vlzq"><polygon points="281.14 291.3 285.94 294.05 295.5 288.53 290.7 285.78 281.14 291.3" style="fill: rgb(255, 255, 255); opacity: 0.2; transform-origin: 288.32px 289.915px;" class="animable"></polygon></g><polygon points="285.94 294.05 285.94 295.87 295.5 290.35 295.5 288.53 285.94 294.05" style="fill: rgb(33, 37, 38); transform-origin: 290.72px 292.2px;" id="elco2057mvz24" class="animable"></polygon><g id="elcyt1q5r8ftg"><polygon points="285.94 294.05 285.94 295.87 295.5 290.35 295.5 288.53 285.94 294.05" style="opacity: 0.4; transform-origin: 290.72px 292.2px;" class="animable"></polygon></g><polygon points="271.32 287.46 276.12 290.2 285.68 284.69 285.68 282.87 280.88 281.94 271.32 285.64 271.32 287.46" style="fill: rgb(33, 37, 38); transform-origin: 278.5px 286.07px;" id="elgavvcx78ysk" class="animable"></polygon><polygon points="271.32 285.64 276.12 288.38 285.68 282.87 280.88 280.12 271.32 285.64" style="fill: rgb(33, 37, 38); transform-origin: 278.5px 284.25px;" id="elen1cn3rgpi" class="animable"></polygon><g id="el7txmy23ph25"><polygon points="271.32 285.64 276.12 288.38 285.68 282.87 280.88 280.12 271.32 285.64" style="fill: rgb(255, 255, 255); opacity: 0.2; transform-origin: 278.5px 284.25px;" class="animable"></polygon></g><polygon points="276.12 288.38 276.12 290.2 285.68 284.69 285.68 282.87 276.12 288.38" style="fill: rgb(33, 37, 38); transform-origin: 280.9px 286.535px;" id="elorheozjyrc" class="animable"></polygon><g id="elxumedyj702m"><polygon points="276.12 288.38 276.12 290.2 285.68 284.69 285.68 282.87 276.12 288.38" style="opacity: 0.4; transform-origin: 280.9px 286.535px;" class="animable"></polygon></g></g><g id="freepik--Chair--inject-244" class="animable" style="transform-origin: 140.5px 328.82px;"><polygon points="130.63 325.59 130.63 403.01 124.97 406.26 124.97 328.83 130.63 325.59" style="fill: rgb(33, 37, 38); transform-origin: 127.8px 365.925px;" id="el8altkrcxpva" class="animable"></polygon><polygon points="124.97 328.83 124.97 406.26 119.31 403 119.31 325.56 124.97 328.83" style="fill: rgb(33, 37, 38); transform-origin: 122.14px 365.91px;" id="elo6r7adfkf5c" class="animable"></polygon><g id="eld3c5iyrvpoq"><polygon points="124.97 328.83 124.97 406.26 119.31 403 119.31 325.56 124.97 328.83" style="opacity: 0.4; transform-origin: 122.14px 365.91px;" class="animable"></polygon></g><polygon points="81.47 316.67 81.47 374.91 75.81 378.16 75.81 319.92 81.47 316.67" style="fill: rgb(33, 37, 38); transform-origin: 78.64px 347.415px;" id="eldz2z31fej6a" class="animable"></polygon><polygon points="75.81 319.92 75.81 378.16 70.15 374.9 70.15 316.64 75.81 319.92" style="fill: rgb(33, 37, 38); transform-origin: 72.98px 347.4px;" id="eli7ay851mh0f" class="animable"></polygon><g id="elbkj7lhjmg0j"><polygon points="75.81 319.92 75.81 378.16 70.15 374.9 70.15 316.64 75.81 319.92" style="opacity: 0.4; transform-origin: 72.98px 347.4px;" class="animable"></polygon></g><polygon points="210.83 299.72 210.83 356.94 205.17 360.19 205.17 302.96 210.83 299.72" style="fill: rgb(33, 37, 38); transform-origin: 208px 329.955px;" id="elyi370y968g" class="animable"></polygon><polygon points="205.17 302.96 205.17 360.19 199.51 356.93 199.51 299.69 205.17 302.96" style="fill: rgb(33, 37, 38); transform-origin: 202.34px 329.94px;" id="elw3jscoofxja" class="animable"></polygon><g id="elo8vl22ouv8a"><polygon points="205.17 302.96 205.17 360.19 199.51 356.93 199.51 299.69 205.17 302.96" style="opacity: 0.4; transform-origin: 202.34px 329.94px;" class="animable"></polygon></g><polygon points="210.85 302.71 124.93 352.17 70.15 320.68 70.15 310.6 156.06 271.23 210.85 292.63 210.85 302.71" style="fill: rgb(33, 37, 38); transform-origin: 140.5px 311.7px;" id="elch37gj783n" class="animable"></polygon><g id="elmxaz8nhm4qq"><polygon points="210.85 302.71 124.93 352.17 70.15 320.68 70.15 310.6 156.06 271.23 210.85 292.63 210.85 302.71" style="opacity: 0.4; transform-origin: 140.5px 311.7px;" class="animable"></polygon></g><polygon points="210.85 292.63 124.93 342.09 70.15 310.6 156.06 261.16 210.85 292.63" style="fill: rgb(33, 37, 38); transform-origin: 140.5px 301.625px;" id="elqxau3wo6geq" class="animable"></polygon><g id="elf0jp84vsurh"><polygon points="210.85 292.63 124.93 342.09 70.15 310.6 156.06 261.16 210.85 292.63" style="opacity: 0.6; transform-origin: 140.5px 301.625px;" class="animable"></polygon></g><polygon points="124.93 342.09 124.93 352.17 210.85 302.71 210.85 292.63 124.93 342.09" style="fill: rgb(33, 37, 38); transform-origin: 167.89px 322.4px;" id="elo88xhgmkjao" class="animable"></polygon><path d="M205.16,292.86a2,2,0,0,1-1,1.86l-75.26,43.34a6.37,6.37,0,0,1-2.91.82,6.44,6.44,0,0,1-3.42-.82l-45.75-26.3a2,2,0,0,1-1-1.68V297.21L94,298.41,152.09,265a6.33,6.33,0,0,1,6.33,0l34.45,19.79,11.3,6.49a1.93,1.93,0,0,1,1,1.4A.62.62,0,0,1,205.16,292.86Z" style="fill: rgb(33, 37, 38); transform-origin: 140.496px 301.519px;" id="elcsfor5kgpu" class="animable"></path><g id="eltsssrrnwhh"><path d="M205.16,292.86a2,2,0,0,1-1,1.86l-75.26,43.34a6.37,6.37,0,0,1-2.91.82,6.44,6.44,0,0,1-3.42-.82l-45.75-26.3a2,2,0,0,1-1-1.68V297.21L94,298.41,152.09,265a6.33,6.33,0,0,1,6.33,0l34.45,19.79,11.3,6.49a1.93,1.93,0,0,1,1,1.4A.62.62,0,0,1,205.16,292.86Z" style="opacity: 0.4; transform-origin: 140.496px 301.519px;" class="animable"></path></g><path d="M205.16,292.86a2,2,0,0,1-1,1.86l-75.26,43.34a6.37,6.37,0,0,1-2.91.82V326.14l35.8-30.38,31.07-11,12.27-4.33v12.36Z" style="fill: rgb(33, 37, 38); transform-origin: 165.577px 309.655px;" id="elqx8xtj4l8ji" class="animable"></path><g id="elpp1jxk87co7"><path d="M205.16,292.86a2,2,0,0,1-1,1.86l-75.26,43.34a6.37,6.37,0,0,1-2.91.82V326.14l35.8-30.38,31.07-11,12.27-4.33v12.36Z" style="fill: rgb(255, 255, 255); opacity: 0.2; transform-origin: 165.577px 309.655px;" class="animable"></path></g><path d="M204.17,282,128.91,325.3a6.35,6.35,0,0,1-6.34,0L76.83,299a2,2,0,0,1,0-3.47l75.25-43.31a6.4,6.4,0,0,1,6.34,0l45.75,26.29A2,2,0,0,1,204.17,282Z" style="fill: rgb(33, 37, 38); transform-origin: 140.509px 288.764px;" id="el1pi23pva2b" class="animable"></path><path d="M103.93,335.54c0-3.66-3-8.35-6.64-10.47-2.05-1.18-3.88-1.31-5.1-.55h0l-3.56,2,1.78,1.29.25-.1s0,.1,0,.16c0,3.66,3,8.35,6.64,10.47a8.77,8.77,0,0,0,1.52.69l-.44.93.41,1,3.62-2.05A3.73,3.73,0,0,0,103.93,335.54Z" style="fill: rgb(33, 37, 38); transform-origin: 96.2884px 332.503px;" id="elypufsllkbr" class="animable"></path><path d="M100.44,337.51c0,3.66-3,4.92-6.63,2.8s-6.64-6.8-6.64-10.46,3-4.93,6.64-2.81S100.44,333.84,100.44,337.51Z" style="fill: rgb(33, 37, 38); transform-origin: 93.805px 333.676px;" id="el7z0rar72sb" class="animable"></path><g id="elcoc1ybtv3hi"><path d="M100.44,337.51c0,3.66-3,4.92-6.63,2.8s-6.64-6.8-6.64-10.46,3-4.93,6.64-2.81S100.44,333.84,100.44,337.51Z" style="opacity: 0.6; transform-origin: 93.805px 333.676px;" class="animable"></path></g></g><g id="freepik--Character--inject-244" class="animable" style="transform-origin: 185.882px 271.485px;"><path d="M169.35,139.16s1.34,1.6,1.69,5.48-2.26,9.69-2.26,9.69l-2.59-12Z" style="fill: rgb(224, 224, 224); transform-origin: 168.631px 146.745px;" id="el5u3nkiq6jr4" class="animable"></path><path d="M155.9,335s-4.07.41-5.57,3.65,1.75,7.48,2.78,13.13-.76,11.29-.19,17.94,4.8,10,9.12,11.12,6.31-1.49,6.31-1.49l-5.89-38.23Z" style="fill: rgb(38, 50, 56); transform-origin: 159.145px 358.06px;" id="ellyi3hjm3nlk" class="animable"></path><path d="M129,164.55s2.42,10.15,6.86,9.91.45-10.63.45-10.63Z" style="fill: rgb(224, 224, 224); transform-origin: 133.479px 169.147px;" id="eldcvhw4jffut" class="animable"></path><path d="M153.2,192.07a2,2,0,0,0-2.29.37,6.84,6.84,0,0,0-1.86,3.08,3.81,3.81,0,0,0-.82-2.15l-1.73-1.66-2.62,1.42-2.3,2.39.35.73a14,14,0,0,1-4.13-2.05c-4.37-3.3-2.76-15.43-2.76-15.43a80.9,80.9,0,0,0-.54-12h17.57v17.88A20.23,20.23,0,0,1,153.2,192.07Z" style="fill: rgb(255, 168, 167); transform-origin: 143.856px 181.51px;" id="eln9bgm2kok" class="animable"></path><path d="M152.07,177.8v3.32c-2.49-.67-9.39-2.6-11.26-3.9-2.3-1.62-3.41-5-3.41-5Z" style="fill: rgb(242, 143, 143); transform-origin: 144.735px 176.67px;" id="el1rgtd4mr4xpi" class="animable"></path><path d="M167.44,141.84a54.36,54.36,0,0,1,1.33,14.37c-.17,9.06-.5,22.93-8.8,24.09s-16.2-2.58-19.52-3.9-6-9.72-6-9.72,0,2.49-3.74,2.28c-3.47-.19-8.55-4.71-6.18-11.57a4,4,0,0,1,5.06-2.54l.08,0s-.65-12.23,5.94-15.33S164.26,136.34,167.44,141.84Z" style="fill: rgb(255, 168, 167); transform-origin: 146.368px 158.96px;" id="elr2blvkxw32d" class="animable"></path><path d="M170.57,131.74a20,20,0,0,1-4.76,2.6s2.27-5.76-1.11-8.8a14,14,0,0,1-8.47,4.21c-3.34.43-22.86-4.64-23.77,7.82-3.66-2.3-5.6.41-5.6.41a13,13,0,0,1,3,1.43,5.52,5.52,0,0,0-1.87,2c-1.72,3-.85,13.4-.85,13.4s4.46-1.52,6.7,5c0,0,.67.4,1.92-.9s3.82-7.82,3-16c0,0,13.33,5.55,24.23,2S170.57,131.74,170.57,131.74Z" style="fill: rgb(224, 224, 224); transform-origin: 148.953px 142.704px;" id="el2u9cg0wu2a4" class="animable"></path><path d="M166.78,380.38l-.53.47a16.25,16.25,0,0,0-2.44,5.92,19.77,19.77,0,0,0-.11,5.73l3.86,3.86a11.52,11.52,0,0,1,3.12,5c.83,2,4.32,12.37,12.29,15s14.79-.29,16.07-1.29,2.83-2.95,1.37-4.61-5.48-6.64-8.93-10.54a41.78,41.78,0,0,1-8-14.62c-1.49-5-2.59-4.92-2.59-4.92Z" style="fill: rgb(38, 50, 56); transform-origin: 182.272px 398.905px;" id="eluqlm5sgitld" class="animable"></path><path d="M165.78,372a70.64,70.64,0,0,1,.47,8.86s4.48,6.2,10.46,4.76,4.21-5.21,4.21-5.21l-.72-12Z" style="fill: rgb(255, 168, 167); transform-origin: 173.472px 377.123px;" id="el0kt3z3ifhl3i" class="animable"></path><path d="M199.53,305.48c-1.72,3.43-13.46,21.15-19.52,30.26-.89,1.31-1.64,2.43-2.22,3.32l-1.41,2.09-5.32-32.89.91-1.65,3.64-6.65-.67-.52,0,0c-1.7-1.3-6.31-4.81-11-8.25h0c-3.22-2.37-6.46-4.72-8.8-6.27-6.64-4.43-10.94-22.26-10.94-22.26l22.26-10.4S196,278.8,200.86,285.88,201.85,300.83,199.53,305.48Z" style="fill: rgb(33, 37, 38); transform-origin: 173.698px 296.705px;" id="eluudnvlqlz2b" class="animable"></path><g id="eljmdo79a5dk"><path d="M199.53,305.48c-1.72,3.43-13.46,21.15-19.52,30.26-.89,1.31-1.64,2.43-2.22,3.32l-1.41,2.09-5.32-32.89.91-1.65,3.64-6.65-.67-.52,0,0c-1.7-1.3-6.31-4.81-11-8.25h0c-3.22-2.37-6.46-4.72-8.8-6.27-6.64-4.43-10.94-22.26-10.94-22.26l22.26-10.4S196,278.8,200.86,285.88,201.85,300.83,199.53,305.48Z" style="opacity: 0.6; transform-origin: 173.698px 296.705px;" class="animable"></path></g><g id="elm9lxhv5f6ga"><path d="M180.92,307.41c0-19.84-19.6-29.33-19.6-29.33l.31,5.51-5.45-6.38s3.58-3.66,3.12-8.37c0,0-1.81,5.32-6.78,7.59,0,0,7.92,10.19,11.4,14.73h0c4.67,3.44,9.28,6.95,11,8.25l.7.54L172,306.61l5.82,32.45c.58-.89,1.33-2,2.22-3.32C179.94,329.42,180.92,313.29,180.92,307.41Z" style="opacity: 0.2; transform-origin: 166.72px 303.95px;" class="animable"></path></g><path d="M111.27,252.44s-6.42,11.19-2.66,22.26,38.76,36.55,41.31,40,3.65,4,3.65,7a77.08,77.08,0,0,0,1.55,15.83c1.55,8.31,10,35.11,10,35.11s10.74,1.77,15.83-2.55c0,0-3.43-58.69-5.2-63s-24.59-32.89-24.59-32.89,10.64-5.43,8-16.72S111.27,252.44,111.27,252.44Z" style="fill: rgb(33, 37, 38); transform-origin: 144.189px 311.857px;" id="eli4kw7mm32j" class="animable"></path><g id="el6ux6626ydi4"><path d="M111.27,252.44s-6.42,11.19-2.66,22.26,38.76,36.55,41.31,40,3.65,4,3.65,7a77.08,77.08,0,0,0,1.55,15.83c1.55,8.31,10,35.11,10,35.11s10.74,1.77,15.83-2.55c0,0-3.43-58.69-5.2-63s-24.59-32.89-24.59-32.89,10.64-5.43,8-16.72S111.27,252.44,111.27,252.44Z" style="opacity: 0.6; transform-origin: 144.189px 311.857px;" class="animable"></path></g><path d="M163,239.93c-.09,1.82,3.48,12.3,3.48,12.3s-4.31,10.3-22.09,13.87-28.9.66-28.9.66l-9.23-33.63L123.68,186l11.1-.74c.13,3.43.83,7.3,3,9a14,14,0,0,0,4.13,2.05l-.35-.73,2.3-2.39,2.62-1.42,1.73,1.66a3.81,3.81,0,0,1,.82,2.15,6.84,6.84,0,0,1,1.86-3.08,2,2,0,0,1,2.29-.37,20.23,20.23,0,0,0-1.13-7.46v-.54c4.8-.32,8.39-.54,8.82-.54,1.4,0,6.29,3.82,7.46,10.89s-1.24,20.26-2.23,25.25S163,238.11,163,239.93Z" style="fill: rgb(33, 37, 38); transform-origin: 137.452px 225.734px;" id="el6nexomk5eyv" class="animable"></path><path d="M183.45,216.3c2.91,5.9,3.86,15.6,2.4,28.27-1.58,13.59-3.85,16.83-20.22,18.64-12.7,1.4-22.31,27-36.69,34.52a17,17,0,0,1-6.71,2l2.31,4.43-11.18-6.26h0c-7-3.62-12.68-13.21-14.46-25.05a51.81,51.81,0,0,1,.26-17.09v0c.17-1,.4-2.1.64-3.15A53.94,53.94,0,0,1,105,239.35c10.51-19,29.24-3.3,39.76-8.24,6.69-3.16,13.85-16.15,21.86-21a12.82,12.82,0,0,1,3.76-1.62,8.66,8.66,0,0,1,6.18.7v0l.51.3a3.84,3.84,0,0,1,.39.22l11.07,6.19Z" style="fill: rgb(69, 90, 100); transform-origin: 143.422px 256.186px;" id="el1g4o7spng8c" class="animable"></path><path d="M111.27,268.38,110,272.83c-3.68-4.78-10.43-16.36-10.86-17.09v0c.17-1,.4-2.1.64-3.15Z" style="fill: rgb(38, 50, 56); transform-origin: 105.205px 262.71px;" id="ell7c9jc9dr6g" class="animable"></path><path d="M178.28,218.26l-3.48,3-7.51-11.58a8.17,8.17,0,0,1,3.06-1.21Z" style="fill: rgb(38, 50, 56); transform-origin: 172.785px 214.865px;" id="elv0qktgab5p" class="animable"></path><path d="M122.23,299.72l2.31,4.43-11.18-6.26h0c-7-3.62-12.68-13.21-14.46-25.05l16.79,9.65,13.24,15.25A17,17,0,0,1,122.23,299.72Z" style="fill: rgb(69, 90, 100); transform-origin: 113.915px 288.495px;" id="elq1x9kvvs5d" class="animable"></path><path d="M193,219.55c4.54,5.15,6.57,16.19,4.55,31.58C196,263,193.2,265.35,177.34,269.77s-27.59,43.84-50.51,35.45c-13.93-5.09-24.08-34.1-10.16-59.31,10.51-19,29.24-3.29,39.77-8.25S178.68,203.32,193,219.55Z" style="fill: rgb(55, 71, 79); transform-origin: 154.176px 260.549px;" id="el9qwor9ti138" class="animable"></path><path d="M143.39,277.6a3,3,0,0,0-.84,2v1.78L139,283.52V259.88l3.58-2v2.3a2.62,2.62,0,0,0,1.2,2.32c.79.44,1.68,2.05,1.68,7C145.43,269.49,145.65,275.16,143.39,277.6Z" style="fill: rgb(38, 50, 56); transform-origin: 142.23px 270.7px;" id="el7p6dikuru1i" class="animable"></path><path d="M271.78,178.3l-19.94,12.78-4,6s-45.14,25.91-46.3,26.51a6.19,6.19,0,0,1-3.23,1,5.71,5.71,0,0,0-2.21.41l1.11,3.77L249.51,198l3.77-5.8,20.34-13.14Z" style="fill: rgb(38, 50, 56); transform-origin: 234.86px 203.535px;" id="elj60umgku7b" class="animable"></path><path d="M273.62,179.08l-20.34,13.14-3.77,5.8-67.3,39.62v15.57l67.3-42.61,3.77,1.24,20.4-11.32C279.67,185.54,273.62,179.08,273.62,179.08Z" style="fill: rgb(69, 90, 100); transform-origin: 229.268px 216.145px;" id="elpcsg25dvdfd" class="animable"></path><polygon points="249.51 198.02 249.51 210.6 248.32 211.36 248.32 198.72 249.51 198.02" style="fill: rgb(38, 50, 56); transform-origin: 248.915px 204.69px;" id="eley38epj1j0b" class="animable"></polygon><g id="el31iv1x6ohs"><ellipse cx="179" cy="246.55" rx="12.95" ry="8.08" style="fill: rgb(38, 50, 56); transform-origin: 179px 246.55px; transform: rotate(-60.1deg);" class="animable"></ellipse></g><polygon points="141.15 265.09 141 264.83 270.96 185.66 271.11 185.92 141.15 265.09" style="fill: rgb(69, 90, 100); transform-origin: 206.055px 225.375px;" id="elqff0gshsmu" class="animable"></polygon><polygon points="141.15 268.01 141 267.75 271.69 187.87 271.85 188.13 141.15 268.01" style="fill: rgb(69, 90, 100); transform-origin: 206.425px 227.94px;" id="elvrxakiavz7" class="animable"></polygon><polygon points="141.15 271.36 141 271.11 248.84 204.61 271.43 193.11 271.57 193.38 248.98 204.87 141.15 271.36" style="fill: rgb(69, 90, 100); transform-origin: 206.285px 232.235px;" id="elev2acvwhktk" class="animable"></polygon><g id="elo2kq4ja7bu"><rect x="129.31" y="233.72" width="154.23" height="0.3" style="fill: rgb(69, 90, 100); transform-origin: 206.425px 233.87px; transform: rotate(-32.2deg);" class="animable"></rect></g><g id="el2v1czbgnl4k"><rect x="129.3" y="236.94" width="153.59" height="0.3" style="fill: rgb(69, 90, 100); transform-origin: 206.095px 237.09px; transform: rotate(-32.2deg);" class="animable"></rect></g><polygon points="141.95 262.15 141.95 279.91 140.2 280.92 140.2 263.15 141.95 262.15" style="fill: rgb(55, 71, 79); transform-origin: 141.075px 271.535px;" id="elhh6714fyh79" class="animable"></polygon><path d="M259.06,195a4.45,4.45,0,0,1-2.24,3.68c-1.24.61-2.25-.06-2.25-1.49a4.44,4.44,0,0,1,2.25-3.68C258.05,192.87,259.06,193.53,259.06,195Z" style="fill: rgb(38, 50, 56); transform-origin: 256.815px 196.086px;" id="el7fopcuyb3y2" class="animable"></path><path d="M266.28,190.46a4.47,4.47,0,0,1-2.24,3.68c-1.24.6-2.25-.07-2.25-1.49A4.47,4.47,0,0,1,264,189C265.27,188.36,266.28,189,266.28,190.46Z" style="fill: rgb(38, 50, 56); transform-origin: 264.035px 191.556px;" id="elke5jjmp8od" class="animable"></path><path d="M273.5,186a4.43,4.43,0,0,1-2.24,3.68c-1.24.61-2.25-.06-2.25-1.49a4.44,4.44,0,0,1,2.25-3.68C272.5,183.86,273.5,184.52,273.5,186Z" style="fill: rgb(38, 50, 56); transform-origin: 271.255px 187.083px;" id="elnzqux9lthcj" class="animable"></path><path d="M259.06,202.94a4.47,4.47,0,0,1-2.24,3.68c-1.24.6-2.25-.07-2.25-1.5a4.47,4.47,0,0,1,2.25-3.68C258.05,200.84,259.06,201.51,259.06,202.94Z" style="fill: rgb(38, 50, 56); transform-origin: 256.815px 204.03px;" id="ellgqguu36ah" class="animable"></path><path d="M266.28,198.43a4.45,4.45,0,0,1-2.24,3.68c-1.24.61-2.25-.06-2.25-1.49a4.44,4.44,0,0,1,2.25-3.68C265.27,196.34,266.28,197,266.28,198.43Z" style="fill: rgb(38, 50, 56); transform-origin: 264.035px 199.527px;" id="el4hxe4obf5em" class="animable"></path><path d="M273.5,193.93a4.44,4.44,0,0,1-2.24,3.68c-1.24.6-2.25-.07-2.25-1.49a4.47,4.47,0,0,1,2.25-3.69C272.5,191.83,273.5,192.5,273.5,193.93Z" style="fill: rgb(38, 50, 56); transform-origin: 271.255px 195.02px;" id="elawjdxydjeiv" class="animable"></path><path d="M135.08,178.05s-3.61,2.41-3.79,6.25,3.74,9.54,10.25,13.64a36.85,36.85,0,0,1,4.35-4.3c1.54-1.07,2.34-.27,2.34-.27a7,7,0,0,0-3.21-3.21C142.48,188.76,134.16,184,135.08,178.05Z" style="fill: rgb(33, 37, 38); transform-origin: 139.757px 187.995px;" id="el0xkfxlmjtkch" class="animable"></path><g id="elveg2bkear2r"><path d="M135.08,178.05s-3.61,2.41-3.79,6.25,3.74,9.54,10.25,13.64a36.85,36.85,0,0,1,4.35-4.3c1.54-1.07,2.34-.27,2.34-.27a7,7,0,0,0-3.21-3.21C142.48,188.76,134.16,184,135.08,178.05Z" style="fill: rgb(255, 255, 255); opacity: 0.2; transform-origin: 139.757px 187.995px;" class="animable"></path></g><path d="M150.91,192.43a1.46,1.46,0,0,1,1.27,0c.67.34,4.65,3.08,4.65,3.08s1.75-2.32.63-6.82a15.59,15.59,0,0,0-5.39-8.16v4.08S153.58,190.5,150.91,192.43Z" style="fill: rgb(33, 37, 38); transform-origin: 154.372px 188.02px;" id="el6pjxh7smr65" class="animable"></path><g id="elv4xu58c2u1k"><path d="M150.91,192.43a1.46,1.46,0,0,1,1.27,0c.67.34,4.65,3.08,4.65,3.08s1.75-2.32.63-6.82a15.59,15.59,0,0,0-5.39-8.16v4.08S153.58,190.5,150.91,192.43Z" style="fill: rgb(255, 255, 255); opacity: 0.2; transform-origin: 154.372px 188.02px;" class="animable"></path></g><path d="M114.59,274.15s5,7,8.11,11.4,8.61,12.69,14.81,14.73,13.34-.1,13.34-3.34-1-3.52-6-6.67a21.69,21.69,0,0,1-7-6.48,10.72,10.72,0,0,0,3.75,2.41c2,.65,5.1.65,5.56-1.2s-1.8-.93-4.35-3.39a27,27,0,0,0-8.57-5.23c-2.68-1.06-7.17-9.76-7.17-9.76S114.45,266.19,114.59,274.15Z" style="fill: rgb(255, 168, 167); transform-origin: 132.719px 283.847px;" id="el5ozwtkq4cnr" class="animable"></path><path d="M123.67,186s-9.15.05-13.25,2.59c-5.85,3.64-7.9,16.16-9.34,22.69s-6.42,29.35-5.54,35.66,19,27.24,19,27.24,4.43-6.76,12.51-7.53c0,0-10.52-20.38-11.85-22.59,0,0,7-29.13,8.69-38S123.67,186,123.67,186Z" style="fill: rgb(33, 37, 38); transform-origin: 111.243px 230.09px;" id="elyi3h0a8q25m" class="animable"></path><g id="elh6em2l9wxgc"><path d="M123.67,186s-9.15.05-13.25,2.59c-5.85,3.64-7.9,16.16-9.34,22.69s-6.42,29.35-5.54,35.66,19,27.24,19,27.24,4.43-6.76,12.51-7.53c0,0-10.52-20.38-11.85-22.59,0,0,7-29.13,8.69-38S123.67,186,123.67,186Z" style="fill: rgb(255, 255, 255); opacity: 0.2; transform-origin: 111.243px 230.09px;" class="animable"></path></g><path d="M161.59,157a1.63,1.63,0,1,0,1.63-1.63A1.63,1.63,0,0,0,161.59,157Z" style="fill: rgb(38, 50, 56); transform-origin: 163.22px 157px;" id="eldylefvr7gz8" class="animable"></path><path d="M148.63,157.42a1.63,1.63,0,1,0,3.25,0,1.63,1.63,0,0,0-3.25,0Z" style="fill: rgb(38, 50, 56); transform-origin: 150.255px 157.548px;" id="el8ecysn7r6pa" class="animable"></path><path d="M163.06,150.13a2.38,2.38,0,0,1,2.87-.29,2.18,2.18,0,0,1,.69,2.45A16.37,16.37,0,0,0,163.06,150.13Z" style="fill: rgb(224, 224, 224); transform-origin: 164.906px 150.889px;" id="el0brqvjwb30g" class="animable"></path><path d="M150.26,151.15a2.56,2.56,0,0,0-2.88-.29,2,2,0,0,0-.69,2.45S149,151.85,150.26,151.15Z" style="fill: rgb(224, 224, 224); transform-origin: 148.39px 151.928px;" id="elj1mi59wt2kk" class="animable"></path><polygon points="156.43 156.15 162.07 164.61 156.84 166.17 156.43 156.15" style="fill: rgb(242, 143, 143); transform-origin: 159.25px 161.16px;" id="el7oeoz2aym9t" class="animable"></polygon><path d="M152.24,169.08a13.25,13.25,0,0,0,3.48,1.24c1.91.36-.41,2.46-2.28,1.72S152.24,169.08,152.24,169.08Z" style="fill: rgb(242, 143, 143); transform-origin: 154.279px 170.638px;" id="elvxp20aggqx" class="animable"></path><path d="M160.88,183.54s5.84-1,10.16,1.89,24.44,29.28,24.44,29.28l16,6.54s-3.86,5.65-3.4,12.08c0,0-17.19-1.84-21.93-4.34-6.22-3.28-18.27-19.62-18.27-19.62a87,87,0,0,0,.41-10.75C168,192.44,166.69,186.08,160.88,183.54Z" style="fill: rgb(33, 37, 38); transform-origin: 186.18px 208.351px;" id="elb6q6ebwq75d" class="animable"></path><g id="elg9c7dpot9xo"><path d="M160.88,183.54s5.84-1,10.16,1.89,24.44,29.28,24.44,29.28l16,6.54s-3.86,5.65-3.4,12.08c0,0-17.19-1.84-21.93-4.34-6.22-3.28-18.27-19.62-18.27-19.62a87,87,0,0,0,.41-10.75C168,192.44,166.69,186.08,160.88,183.54Z" style="fill: rgb(255, 255, 255); opacity: 0.2; transform-origin: 186.18px 208.351px;" class="animable"></path></g><path d="M235.4,243.81c-.44.16-2.7-3.12-3-3.75l-2.4-5.7-2.63-6.22a1.27,1.27,0,0,1,.67-1.65,1.32,1.32,0,0,1,.48-.09,1.26,1.26,0,0,1,1.17.76s3.37,8,5.14,12.23C235.21,241,235.65,243.5,235.4,243.81Z" style="fill: rgb(38, 50, 56); transform-origin: 231.374px 235.108px;" id="elf8yn3h7o5oi" class="animable"></path><path d="M208,233.33,221.2,235a6.63,6.63,0,0,1,4.21,2.23,13.69,13.69,0,0,0,1.83,1.82c1.85,1.48,4.57,1.24,6.36,1.92s2.47-.25,1.91-1.61-1.53-2-3.81-3.39a7.05,7.05,0,0,1-2.31-3l-2.26-5.36-15.69-6.3A17.15,17.15,0,0,0,208,233.33Z" style="fill: rgb(255, 168, 167); transform-origin: 221.812px 231.254px;" id="el3lvs9b0kgs2" class="animable"></path><path d="M233.61,240.93c-1.8-.68-4.52-.43-6.36-1.91a12.69,12.69,0,0,1-1.84-1.82A6.71,6.71,0,0,0,221.2,235L208,233.33a17.17,17.17,0,0,1,3.4-12.08l15.69,6.3,2.4,5.71L231.1,237l1.36-.56c1.74,1.09,2.57,1.7,3.06,2.9C236.06,240.7,235.38,241.61,233.61,240.93Z" style="fill: rgb(255, 168, 167); transform-origin: 221.808px 231.205px;" id="elg2ncfkwbxne" class="animable"></path><path d="M230.28,228.59a34.18,34.18,0,0,0,3.51.93c1.79.37,2.11,3.26,2.67,4.93s-1.32,6.19-1.87,5.81-6-6.3-6-6.3-1.48-1.54-1.3-1.85S230.28,228.59,230.28,228.59Z" style="fill: rgb(255, 168, 167); transform-origin: 231.919px 234.436px;" id="el6f8w9wwvo5p" class="animable"></path><path d="M232.46,236.43c-.23-.17-.48-.31-.77-.49a6.79,6.79,0,0,1-2.16-2.68l-2.4-5.71-2.62-6.22a1.26,1.26,0,0,1,.66-1.65,1.36,1.36,0,0,1,.48-.09,1.28,1.28,0,0,1,1.17.76L233,235.12a0,0,0,0,0,0,0A1.09,1.09,0,0,1,232.46,236.43Z" style="fill: rgb(38, 50, 56); transform-origin: 228.732px 228.01px;" id="eljxsfkszd59e" class="animable"></path></g><g id="freepik--Lectern--inject-244" class="animable" style="transform-origin: 213.335px 309.185px;"><polygon points="171.22 289.57 174.39 291.42 231.73 258.41 255.45 214.22 252.28 212.37 194.94 245.38 171.22 289.57" style="fill: rgb(33, 37, 38); transform-origin: 213.335px 251.895px;" id="el4j6g8283ny5" class="animable"></polygon><g id="elc8tprgx3zkg"><polygon points="174.39 291.42 231.73 258.41 255.45 214.22 198.11 247.23 174.39 291.42" style="opacity: 0.4; transform-origin: 214.92px 252.82px;" class="animable"></polygon></g><path d="M207.23,260.85l10-5.73a6.92,6.92,0,0,0,2.63-2.71l3.65-6.8a.62.62,0,0,0-.85-.82l-10,5.73a6.83,6.83,0,0,0-2.62,2.71l-3.65,6.8A.61.61,0,0,0,207.23,260.85Z" style="fill: rgb(38, 50, 56); transform-origin: 214.945px 252.824px;" id="elads57stoqg" class="animable"></path><path d="M215.58,382a1.24,1.24,0,0,1-1.24-1.24v-128a1.24,1.24,0,1,1,2.48,0v128A1.23,1.23,0,0,1,215.58,382Z" style="fill: rgb(38, 50, 56); transform-origin: 215.58px 316.758px;" id="eltuorgk5sk2" class="animable"></path><path d="M227.91,406a1.24,1.24,0,0,1-1.1-.68L215,382.33l-27.14,9.41a1.24,1.24,0,1,1-.81-2.34l29.17-10.12L229,404.14a1.23,1.23,0,0,1-.53,1.67A1.3,1.3,0,0,1,227.91,406Z" style="fill: rgb(38, 50, 56); transform-origin: 207.646px 392.64px;" id="el3t690kbafan" class="animable"></path><path d="M215.76,382a1.24,1.24,0,0,1-1.11-.68,1.23,1.23,0,0,1,.55-1.66l9.75-4.93a1.24,1.24,0,1,1,1.11,2.21l-9.75,4.93A1.23,1.23,0,0,1,215.76,382Z" style="fill: rgb(38, 50, 56); transform-origin: 220.672px 378.277px;" id="ele027c2vpegs" class="animable"></path></g><defs>     <filter id="active" height="200%">         <feMorphology in="SourceAlpha" result="DILATED" operator="dilate" radius="2"></feMorphology>                <feFlood flood-color="#32DFEC" flood-opacity="1" result="PINK"></feFlood>        <feComposite in="PINK" in2="DILATED" operator="in" result="OUTLINE"></feComposite>        <feMerge>            <feMergeNode in="OUTLINE"></feMergeNode>            <feMergeNode in="SourceGraphic"></feMergeNode>        </feMerge>    </filter>    <filter id="hover" height="200%">        <feMorphology in="SourceAlpha" result="DILATED" operator="dilate" radius="2"></feMorphology>                <feFlood flood-color="#ff0000" flood-opacity="0.5" result="PINK"></feFlood>        <feComposite in="PINK" in2="DILATED" operator="in" result="OUTLINE"></feComposite>        <feMerge>            <feMergeNode in="OUTLINE"></feMergeNode>            <feMergeNode in="SourceGraphic"></feMergeNode>        </feMerge>            <feColorMatrix type="matrix" values="0   0   0   0   0                0   1   0   0   0                0   0   0   0   0                0   0   0   1   0 "></feColorMatrix>    </filter></defs></svg>